<?xml version="1.0" encoding="iso-8859-1"?>
<!-- Generator: Adobe Illustrator 19.0.0, SVG Export Plug-In . SVG Version: 6.00 Build 0)  -->
<svg version="1.1" id="Layer_1" xmlns="http://www.w3.org/2000/svg" xmlns:xlink="http://www.w3.org/1999/xlink" x="0px" y="0px"
	 viewBox="0 0 318.188 318.188" style="enable-background:new 0 0 318.188 318.188;" xml:space="preserve">
<g>
	<polygon style="fill:#E4E4E4;" points="227.321,7.5 40.342,7.5 40.342,310.688 277.846,310.688 277.846,58.025 	"/>
	<polygon style="fill:#FB9200;" points="235.14,32.763 40.342,32.763 40.342,7.5 227.321,7.5 	"/>
	<g>
		<rect x="193.448" y="95.402" style="fill:#A4A9AD;" width="14.419" height="62.587"/>
		<g>
			<polygon style="fill:#D1D3D3;" points="211.089,141.025 190.227,144.798 190.227,151.189 211.089,147.416 			"/>
			<polygon style="fill:#D1D3D3;" points="211.089,128.084 190.227,131.857 190.227,138.248 211.089,134.476 			"/>
			<polygon style="fill:#D1D3D3;" points="211.089,115.144 190.227,118.916 190.227,125.307 211.089,121.535 			"/>
			<polygon style="fill:#D1D3D3;" points="211.089,102.203 190.227,105.975 190.227,112.365 211.089,108.594 			"/>
		</g>
		<rect x="195.865" y="162.5" style="fill:#A4A9AD;" width="9.585" height="18.043"/>
		<polygon style="fill:#A4A9AD;" points="190.227,155.451 170.774,162.781 111.868,162.781 118.917,174.623 170.774,174.623 
			190.227,167.293 211.089,167.293 211.089,155.451 		"/>
		<polygon style="fill:#A4A9AD;" points="190.227,97.939 170.774,90.61 111.868,90.61 118.917,78.77 170.774,78.77 190.227,86.1 
			211.089,86.1 211.089,97.939 		"/>
		<g>
			<rect x="97.192" y="90.61" style="fill:#FB9200;" width="71.053" height="72.171"/>
			<g>
				<rect x="107.676" y="99.685" style="fill:#FF671B;" width="50.086" height="22.827"/>
				<rect x="124.642" y="106.318" style="fill:#FFFFFF;" width="16.154" height="3.953"/>
			</g>
			<g>
				<rect x="107.676" y="130.88" style="fill:#FF671B;" width="50.086" height="22.827"/>
				<rect x="124.642" y="137.513" style="fill:#FFFFFF;" width="16.154" height="3.954"/>
			</g>
		</g>
		<rect x="190.227" y="174.623" style="fill:#A4A9AD;" width="20.862" height="11.84"/>
	</g>
	<polygon style="fill:#D1D3D3;" points="227.321,58.025 277.846,58.025 227.321,7.5 	"/>
	<path style="fill:#333E48;" d="M283.149,52.723L232.625,2.197C231.218,0.79,229.311,0,227.321,0H40.342c-4.143,0-7.5,3.358-7.5,7.5
		v303.188c0,4.143,3.357,7.5,7.5,7.5h237.504c4.143,0,7.5-3.357,7.5-7.5V58.025C285.346,56.036,284.556,54.129,283.149,52.723z
		 M234.821,25.606l24.918,24.919h-24.918L234.821,25.606L234.821,25.606z M47.842,15h171.979v10.263H47.842V15z M270.346,303.188
		H47.842V40.263h171.979v17.763c0,4.143,3.357,7.5,7.5,7.5h43.024v237.662H270.346z M124.185,244.189h20.773l-16.475,37.182h13.423
		l16.901-40.268v-7.646h-34.623v10.732H124.185z M192.675,252.131v-7.941H163.5v9.813h14.505l-15.391,20.051v7.318h30.782v-9.813
		h-15.457L192.675,252.131z"/>
</g>
<g>
</g>
<g>
</g>
<g>
</g>
<g>
</g>
<g>
</g>
<g>
</g>
<g>
</g>
<g>
</g>
<g>
</g>
<g>
</g>
<g>
</g>
<g>
</g>
<g>
</g>
<g>
</g>
<g>
</g>
</svg>
