<?xml version="1.0" encoding="iso-8859-1"?>
<!-- Generator: Adobe Illustrator 19.0.0, SVG Export Plug-In . SVG Version: 6.00 Build 0)  -->
<svg version="1.1" id="Layer_1" xmlns="http://www.w3.org/2000/svg" xmlns:xlink="http://www.w3.org/1999/xlink" x="0px" y="0px"
	 viewBox="0 0 318.188 318.188" style="enable-background:new 0 0 318.188 318.188;" xml:space="preserve">
<g>
	<polygon style="fill:#E8E8E8;" points="227.321,7.5 40.342,7.5 40.342,310.688 277.846,310.688 277.846,58.025 	"/>
	<polygon style="fill:#430098;" points="235.14,32.763 40.342,32.763 40.342,7.5 227.321,7.5 	"/>
	<g>
		<path style="fill:#430098;" d="M144.478,179.585l-6.664-21.877h-33.508l-6.664,21.877H76.645l32.438-92.287h23.826l32.564,92.287
			H144.478z M133.161,141.363c-6.161-19.823-9.629-31.034-10.404-33.633c-0.776-2.598-1.331-4.652-1.666-6.161
			c-1.383,5.365-5.344,18.63-11.882,39.794H133.161z"/>
		<path style="fill:#430098;" d="M207.343,180.843c-11.316,0-20.159-3.122-26.529-9.367c-6.371-6.244-9.556-15.088-9.556-26.529
			c0-11.776,2.944-20.881,8.833-27.315c5.887-6.433,14.028-9.65,24.423-9.65c9.933,0,17.665,2.829,23.198,8.487
			c5.531,5.658,8.298,13.475,8.298,23.449v9.304h-45.327c0.21,5.449,1.824,9.703,4.842,12.762c3.018,3.06,7.25,4.589,12.699,4.589
			c4.232,0,8.234-0.44,12.007-1.32c3.772-0.88,7.711-2.284,11.819-4.212v14.836c-3.354,1.677-6.938,2.923-10.751,3.74
			C217.485,180.434,212.833,180.843,207.343,180.843z M204.64,121.623c-4.066,0-7.252,1.289-9.556,3.866
			c-2.306,2.578-3.626,6.234-3.96,10.97h26.906c-0.085-4.736-1.32-8.393-3.709-10.97S208.704,121.623,204.64,121.623z"/>
	</g>
	<polygon style="fill:#D1D3D3;" points="227.321,58.025 277.846,58.025 227.321,7.5 	"/>
	<path style="fill:#333E48;" d="M283.149,52.722L232.625,2.197C231.218,0.79,229.311,0,227.321,0H40.342c-4.143,0-7.5,3.358-7.5,7.5
		v303.188c0,4.142,3.357,7.5,7.5,7.5h237.504c4.143,0,7.5-3.358,7.5-7.5V58.025C285.346,56.036,284.556,54.129,283.149,52.722z
		 M234.821,25.606l24.918,24.919h-24.918L234.821,25.606L234.821,25.606z M47.842,15h171.979v10.263H47.842V15z M270.346,303.188
		H47.842V40.263h171.979v17.763c0,4.142,3.357,7.5,7.5,7.5h43.024v237.662H270.346z M148.257,281.371h28.485v-10.567H161.22v-9.058
		h14.374v-10.403H161.22v-7.548h15.522v-10.403h-28.485V281.371z M109.925,233.195l-15.653,48.176h14.243l2.428-8.992h15.589
		l2.362,8.992h14.178l-15.852-48.176H109.925z M113.634,261.746c1.99-7.526,3.276-12.569,3.855-15.129
		c0.58-2.56,0.969-4.397,1.166-5.513c0.219,1.203,0.672,3.194,1.361,5.972c0.689,2.779,1.274,5.043,1.756,6.793l2.068,7.876h-10.206
		V261.746z M215.401,237.363c-3.042-2.647-7.593-3.971-13.652-3.971h-16.605v47.979h12.963v-15.917h3.643
		c5.819,0,10.31-1.46,13.472-4.381c3.161-2.92,4.742-7.061,4.742-12.421C219.963,243.773,218.441,240.01,215.401,237.363z
		 M205.112,253.247c-1.148,1.094-2.696,1.641-4.644,1.641h-2.362v-11.027h3.347c3.588,0,5.383,1.619,5.383,4.857
		C206.836,250.643,206.262,252.153,205.112,253.247z"/>
</g>
<g>
</g>
<g>
</g>
<g>
</g>
<g>
</g>
<g>
</g>
<g>
</g>
<g>
</g>
<g>
</g>
<g>
</g>
<g>
</g>
<g>
</g>
<g>
</g>
<g>
</g>
<g>
</g>
<g>
</g>
</svg>
