<?xml version="1.0" encoding="iso-8859-1"?>
<!-- Generator: Adobe Illustrator 19.0.0, SVG Export Plug-In . SVG Version: 6.00 Build 0)  -->
<svg version="1.1" id="Layer_1" xmlns="http://www.w3.org/2000/svg" xmlns:xlink="http://www.w3.org/1999/xlink" x="0px" y="0px"
	 viewBox="0 0 318.188 318.188" style="enable-background:new 0 0 318.188 318.188;" xml:space="preserve">
<g>
	<polygon style="fill:#E8E8E8;" points="227.321,7.5 40.342,7.5 40.342,310.688 277.846,310.688 277.846,58.025 	"/>
	<polygon style="fill:#FB9200;" points="235.139,32.763 40.342,32.763 40.342,7.5 227.321,7.5 	"/>
	<g>
		<path style="fill:#FB9200;" d="M162.865,179.585l-6.664-21.877h-33.507l-6.664,21.877H95.033l32.439-92.287h23.826l32.564,92.287
			H162.865z M151.549,141.363c-6.161-19.823-9.629-31.034-10.404-33.633c-0.776-2.598-1.331-4.652-1.666-6.161
			c-1.383,5.365-5.344,18.63-11.882,39.794H151.549z"/>
		<path style="fill:#FB9200;" d="M193.104,91.133c0-6.245,3.479-9.367,10.436-9.367c6.956,0,10.436,3.123,10.436,9.367
			c0,2.976-0.87,5.292-2.609,6.946c-1.74,1.656-4.349,2.483-7.827,2.483C196.582,100.563,193.104,97.42,193.104,91.133z
			 M213.095,179.585h-19.174v-70.284h19.174V179.585z"/>
	</g>
	<polygon style="fill:#D1D3D3;" points="227.321,58.025 277.846,58.025 227.321,7.5 	"/>
	<path style="fill:#333E48;" d="M176.233,281.371h13.028v-47.979h-13.028V281.371z M283.149,52.722L232.625,2.197
		C231.218,0.79,229.311,0,227.321,0H40.342c-4.142,0-7.5,3.358-7.5,7.5v303.188c0,4.142,3.358,7.5,7.5,7.5h237.504
		c4.142,0,7.5-3.358,7.5-7.5V58.025C285.346,56.036,284.556,54.129,283.149,52.722z M234.821,25.606l24.918,24.919h-24.918
		L234.821,25.606L234.821,25.606z M47.842,15h171.979v10.263H47.842V15z M270.346,303.188H47.842V40.263h171.979v17.763
		c0,4.142,3.358,7.5,7.5,7.5h43.024v237.662H270.346z M137.902,233.195l-15.654,48.176h14.243l2.429-8.992h15.589l2.361,8.992
		h14.178l-15.85-48.176H137.902z M141.611,261.746c1.991-7.526,3.276-12.569,3.856-15.129s0.968-4.397,1.165-5.513
		c0.219,1.203,0.674,3.194,1.361,5.972c0.689,2.779,1.275,5.043,1.756,6.793l2.068,7.876h-10.206V261.746z"/>
</g>
<g>
</g>
<g>
</g>
<g>
</g>
<g>
</g>
<g>
</g>
<g>
</g>
<g>
</g>
<g>
</g>
<g>
</g>
<g>
</g>
<g>
</g>
<g>
</g>
<g>
</g>
<g>
</g>
<g>
</g>
</svg>
