<?xml version="1.0" encoding="iso-8859-1"?>
<!-- Generator: Adobe Illustrator 19.0.0, SVG Export Plug-In . SVG Version: 6.00 Build 0)  -->
<svg version="1.1" id="Layer_1" xmlns="http://www.w3.org/2000/svg" xmlns:xlink="http://www.w3.org/1999/xlink" x="0px" y="0px"
	 viewBox="0 0 318.188 318.188" style="enable-background:new 0 0 318.188 318.188;" xml:space="preserve">
<g>
	<polygon style="fill:#E8E8E8;" points="227.321,7.5 40.342,7.5 40.342,310.688 277.846,310.688 277.846,58.025 	"/>
	<g>
		<circle style="fill:#38A3FF;" cx="157.627" cy="129.643" r="59.225"/>
		<path style="fill:#FFFFFF;" d="M149.284,157.58c-5.398,3.493-9.814,1.091-9.814-5.339v-45.197c0-6.429,4.416-8.832,9.814-5.341
			l33.362,21.588c5.398,3.493,5.398,9.21,0,12.699L149.284,157.58z"/>
	</g>
	<polygon style="fill:#38A3FF;" points="235.14,32.763 40.342,32.763 40.342,7.5 227.321,7.5 	"/>
	<polygon style="fill:#D1D3D3;" points="227.321,58.025 277.846,58.025 227.321,7.5 	"/>
	<path style="fill:#333E48;" d="M283.149,52.723L232.625,2.197C231.218,0.79,229.311,0,227.321,0H40.342c-4.142,0-7.5,3.358-7.5,7.5
		v303.188c0,4.143,3.358,7.5,7.5,7.5h237.504c4.143,0,7.5-3.357,7.5-7.5V58.025C285.346,56.036,284.556,54.129,283.149,52.723z
		 M234.821,25.606l24.918,24.919h-24.918L234.821,25.606L234.821,25.606z M47.842,15h171.979v10.263H47.842V15z M270.346,303.188
		H47.842V40.263h171.979v17.763c0,4.143,3.357,7.5,7.5,7.5h43.024v237.662H270.346z M173.198,257.841
		c-0.351,1.313-0.755,3.118-1.215,5.415c-0.459,2.297-0.766,4.212-0.919,5.743c-0.131-2.122-0.875-5.886-2.231-11.29l-6.53-24.317
		h-14.571l15.654,47.979h15.26l15.72-47.979H179.86L173.198,257.841z M114.585,233.195l-15.654,48.176h14.243l2.429-8.992h15.588
		l2.363,8.992h14.177l-15.851-48.176H114.585z M118.294,261.746c1.991-7.525,3.276-12.568,3.856-15.129
		c0.58-2.56,0.968-4.397,1.165-5.514c0.219,1.204,0.673,3.195,1.362,5.973c0.689,2.779,1.274,5.043,1.755,6.794l2.068,7.876H118.294
		z M199.551,281.371h13.028v-47.979h-13.028V281.371z"/>
</g>
<g>
</g>
<g>
</g>
<g>
</g>
<g>
</g>
<g>
</g>
<g>
</g>
<g>
</g>
<g>
</g>
<g>
</g>
<g>
</g>
<g>
</g>
<g>
</g>
<g>
</g>
<g>
</g>
<g>
</g>
</svg>
