<?xml version="1.0" encoding="iso-8859-1"?>
<!-- Generator: Adobe Illustrator 19.0.0, SVG Export Plug-In . SVG Version: 6.00 Build 0)  -->
<svg version="1.1" id="Layer_1" xmlns="http://www.w3.org/2000/svg" xmlns:xlink="http://www.w3.org/1999/xlink" x="0px" y="0px"
	 viewBox="0 0 318.188 318.188" style="enable-background:new 0 0 318.188 318.188;" xml:space="preserve">
<g>
	<polygon style="fill:#E8E8E8;" points="227.321,7.5 40.342,7.5 40.342,310.688 277.846,310.688 277.846,58.025 	"/>
	<g>
		<g>
			<path style="fill:#333E48;" d="M133.852,124.082h-8.881V99.775l0.087-3.994l0.145-4.368c-1.476,1.476-2.499,2.442-3.074,2.901
				l-4.828,3.88l-4.279-5.346l13.532-10.773h7.299L133.852,124.082L133.852,124.082z"/>
			<path style="fill:#333E48;" d="M174.622,103.078c0,7.336-1.203,12.768-3.607,16.293c-2.404,3.524-6.105,5.285-11.104,5.285
				c-4.847,0-8.5-1.82-10.962-5.459c-2.461-3.639-3.692-9.013-3.692-16.119c0-7.413,1.197-12.876,3.592-16.392
				c2.394-3.514,6.082-5.271,11.063-5.271c4.846,0,8.509,1.84,10.988,5.517C173.38,90.609,174.622,95.99,174.622,103.078z
				 M154.077,103.078c0,5.153,0.446,8.845,1.336,11.076c0.891,2.232,2.39,3.348,4.498,3.348c2.068,0,3.563-1.131,4.481-3.391
				c0.92-2.26,1.379-5.937,1.379-11.033c0-5.15-0.465-8.852-1.393-11.104c-0.93-2.249-2.419-3.376-4.468-3.376
				c-2.088,0-3.582,1.127-4.483,3.376C154.528,94.227,154.077,97.928,154.077,103.078z"/>
			<path style="fill:#333E48;" d="M201.026,124.082h-8.879V99.775l0.087-3.994l0.144-4.368c-1.475,1.476-2.5,2.442-3.074,2.901
				l-4.826,3.88l-4.282-5.346l13.532-10.773h7.299L201.026,124.082L201.026,124.082z"/>
		</g>
		<g>
			<path style="fill:#333E48;" d="M141.033,160.666c0,7.336-1.201,12.767-3.604,16.29c-2.405,3.525-6.106,5.287-11.105,5.287
				c-4.847,0-8.501-1.819-10.963-5.458c-2.461-3.639-3.691-9.012-3.691-16.119c0-7.414,1.197-12.878,3.592-16.393
				s6.082-5.271,11.063-5.271c4.846,0,8.509,1.837,10.988,5.516C139.793,148.196,141.033,153.579,141.033,160.666z M120.489,160.666
				c0,5.152,0.446,8.845,1.337,11.076s2.39,3.346,4.497,3.346c2.068,0,3.562-1.129,4.481-3.389
				c0.919-2.261,1.378-5.938,1.378-11.033c0-5.152-0.463-8.854-1.393-11.105c-0.929-2.25-2.418-3.375-4.467-3.375
				c-2.088,0-3.583,1.125-4.483,3.375C120.938,151.812,120.489,155.514,120.489,160.666z"/>
			<path style="fill:#333E48;" d="M167.438,181.667h-8.879v-24.306l0.087-3.994l0.144-4.366c-1.477,1.474-2.5,2.442-3.073,2.903
				l-4.829,3.877l-4.279-5.344l13.532-10.774h7.298v42.004H167.438z"/>
			<path style="fill:#333E48;" d="M201.026,181.667h-8.879v-24.306l0.087-3.994l0.144-4.366c-1.475,1.474-2.5,2.442-3.074,2.903
				l-4.826,3.877l-4.282-5.344l13.532-10.774h7.299L201.026,181.667L201.026,181.667z"/>
		</g>
	</g>
	<polygon style="fill:#333E48;" points="235.14,32.763 40.342,32.763 40.342,7.5 227.321,7.5 	"/>
	<polygon style="fill:#D1D3D3;" points="227.321,58.025 277.846,58.025 227.321,7.5 	"/>
	<path style="fill:#333E48;" d="M146.451,281.371h13.028v-47.979h-13.028V281.371z M283.149,52.723L232.625,2.197
		C231.218,0.79,229.311,0,227.321,0H40.342c-4.143,0-7.5,3.358-7.5,7.5v303.188c0,4.143,3.357,7.5,7.5,7.5h237.504
		c4.143,0,7.5-3.357,7.5-7.5V58.025C285.346,56.036,284.556,54.129,283.149,52.723z M234.821,25.606l24.918,24.919h-24.918
		L234.821,25.606L234.821,25.606z M47.842,15h171.979v10.263H47.842V15z M270.346,303.188H47.842V40.263h171.979v17.763
		c0,4.143,3.357,7.5,7.5,7.5h43.024v237.662H270.346z M203.98,255.084c0,2.932,0.152,6.815,0.459,11.65h-0.196l-17.459-33.343
		H169.85v47.979h11.485v-21.627c0-2.801-0.208-6.859-0.623-12.176h0.295l17.525,33.803h16.999v-47.979H203.98V255.084z
		 M129.649,256.232v-0.328c2.252-0.547,4.068-1.771,5.447-3.676c1.379-1.902,2.067-4.2,2.067-6.891c0-4.092-1.581-7.105-4.742-9.041
		c-3.161-1.938-8.003-2.905-14.521-2.905h-16.737v47.979h18.674c5.645,0,10.102-1.252,13.373-3.758
		c3.27-2.505,4.906-5.934,4.906-10.288c0-2.932-0.668-5.316-2.002-7.154C134.779,258.333,132.624,257.021,129.649,256.232z
		 M114.126,243.204h3.643c4.07,0,6.104,1.346,6.104,4.036c0,1.51-0.509,2.648-1.526,3.414s-2.456,1.148-4.315,1.148h-3.905
		L114.126,243.204L114.126,243.204z M118.688,271.361h-4.563v-10.074h4.299c2.057,0,3.627,0.426,4.71,1.279s1.624,2.079,1.624,3.676
		C124.759,269.655,122.735,271.361,118.688,271.361z"/>
</g>
<g>
</g>
<g>
</g>
<g>
</g>
<g>
</g>
<g>
</g>
<g>
</g>
<g>
</g>
<g>
</g>
<g>
</g>
<g>
</g>
<g>
</g>
<g>
</g>
<g>
</g>
<g>
</g>
<g>
</g>
</svg>
