<?xml version="1.0" encoding="iso-8859-1"?>
<!-- Generator: Adobe Illustrator 19.0.0, SVG Export Plug-In . SVG Version: 6.00 Build 0)  -->
<svg version="1.1" id="Layer_1" xmlns="http://www.w3.org/2000/svg" xmlns:xlink="http://www.w3.org/1999/xlink" x="0px" y="0px"
	 viewBox="0 0 318.188 318.188" style="enable-background:new 0 0 318.188 318.188;" xml:space="preserve">
<g>
	<polygon style="fill:#E8E8E8;" points="227.321,7.5 40.342,7.5 40.342,310.688 277.846,310.688 277.846,58.025 	"/>
	<g>
		<circle style="fill:#004A94;" cx="158.107" cy="129.643" r="57.429"/>
		<path style="fill:#D1D3D3;" d="M184.525,149.734c-5.891,5.891-14.028,9.535-23.017,9.535c-17.979,0-32.552-14.574-32.552-32.552
			c0-12.016,6.51-22.511,16.195-28.151l-36.189,1.349c-5.257,8.672-8.284,18.846-8.284,29.728c0,31.718,25.71,57.429,57.429,57.429
			c16.657,0,31.652-7.098,42.142-18.428L184.525,149.734z"/>
		<path style="fill:#A4A9AD;" d="M215.744,136.336c0-7.711-6.25-13.961-13.96-13.961c-2.828,0-5.454,0.846-7.652,2.291l-0.003-0.002
			c-0.017,0.011-0.033,0.022-0.048,0.033c-0.08,0.054-0.161,0.109-0.239,0.166c-9.158,6.118-16.015,27.497-25.047,35.551
			l0.009-0.007c-5.552,5.055-12.93,8.136-21.03,8.136c-17.258,0-31.245-13.989-31.245-31.245c0-17.257,13.987-31.246,31.245-31.246
			c3.458,0,13.4,2.673,21.71,0.974c1.846-0.344,3.591-0.965,5.183-1.838c0.01-0.005,0.021-0.009,0.029-0.015
			c0.064-0.035,0.118-0.076,0.181-0.113c5.316-3.01,8.912-8.707,8.912-15.252c0-8.155-5.579-14.979-13.122-16.935
			c-4.046-0.891-8.245-1.375-12.559-1.375c-8.386,0-16.353,1.789-23.553,4.985l-6.024,3.102
			c-17.096,10.125-28.568,28.748-28.568,50.059c0,32.113,26.032,58.146,58.146,58.146c29.5,0,53.851-21.973,57.623-50.441
			l-0.036-0.021C215.718,136.999,215.744,136.67,215.744,136.336z"/>
		<circle style="fill:#38A3FF;" cx="151.652" cy="127.102" r="11.419"/>
	</g>
	<polygon style="fill:#004A94;" points="235.14,32.763 40.342,32.763 40.342,7.5 227.321,7.5 	"/>
	<polygon style="fill:#D1D3D3;" points="227.321,58.025 277.846,58.025 227.321,7.5 	"/>
	<path style="fill:#333E48;" d="M168.882,233.392h-11.979l-19.953,29.175v9.517h19.133v9.288h12.799v-9.288h5.283v-9.681h-5.283
		L168.882,233.392L168.882,233.392z M156.198,252.574c-0.076,1.783-0.115,3.2-0.115,4.25v5.579h-7.908l5.316-7.909
		c0.939-1.466,1.783-3.041,2.527-4.726h0.359C156.335,249.855,156.274,250.791,156.198,252.574z M283.149,52.722L232.625,2.197
		C231.218,0.79,229.311,0,227.321,0H40.342c-4.143,0-7.5,3.358-7.5,7.5v303.188c0,4.142,3.357,7.5,7.5,7.5h237.504
		c4.143,0,7.5-3.358,7.5-7.5V58.025C285.346,56.036,284.556,54.129,283.149,52.722z M234.821,25.606l24.918,24.919h-24.918
		L234.821,25.606L234.821,25.606z M47.842,15h171.979v10.263H47.842V15z M270.346,303.188H47.842V40.263h171.979v17.763
		c0,4.142,3.357,7.5,7.5,7.5h43.024v237.662H270.346z M118.737,243.335c2.034,0,3.938,0.285,5.71,0.854s3.544,1.269,5.316,2.1
		l3.971-10.206c-4.726-2.253-9.681-3.38-14.866-3.38c-4.748,0-8.877,1.012-12.389,3.036s-6.203,4.917-8.073,8.68
		c-1.87,3.763-2.806,8.128-2.806,13.094c0,7.942,1.931,14.013,5.793,18.214c3.86,4.201,9.412,6.301,16.654,6.301
		c5.054,0,9.582-0.886,13.586-2.658v-10.961c-2.013,0.832-4.015,1.542-6.006,2.133c-1.99,0.59-4.047,0.886-6.169,0.886
		c-7.022,0-10.534-4.616-10.534-13.849c0-4.441,0.863-7.925,2.592-10.452S115.651,243.335,118.737,243.335z M196.975,233.392H180.37
		v47.979h15.522c7.985,0,14.183-2.166,18.591-6.498s6.613-10.501,6.613-18.509c0-7.438-2.096-13.127-6.285-17.065
		C210.621,235.361,204.676,233.392,196.975,233.392z M204.884,267.309c-1.838,2.287-4.726,3.43-8.664,3.43h-2.888v-26.877h3.773
		c3.545,0,6.187,1.061,7.926,3.183c1.739,2.123,2.609,5.382,2.609,9.78C207.641,261.528,206.722,265.023,204.884,267.309z"/>
</g>
<g>
</g>
<g>
</g>
<g>
</g>
<g>
</g>
<g>
</g>
<g>
</g>
<g>
</g>
<g>
</g>
<g>
</g>
<g>
</g>
<g>
</g>
<g>
</g>
<g>
</g>
<g>
</g>
<g>
</g>
</svg>
