<?xml version="1.0" encoding="iso-8859-1"?>
<!-- Generator: Adobe Illustrator 19.0.0, SVG Export Plug-In . SVG Version: 6.00 Build 0)  -->
<svg version="1.1" id="Layer_1" xmlns="http://www.w3.org/2000/svg" xmlns:xlink="http://www.w3.org/1999/xlink" x="0px" y="0px"
	 viewBox="0 0 318.188 318.188" style="enable-background:new 0 0 318.188 318.188;" xml:space="preserve">
<g>
	<g>
		<polygon style="fill:#E8E8E8;" points="227.321,7.5 40.342,7.5 40.342,310.688 277.846,310.688 277.846,58.025 		"/>
	</g>
	<g>
		<path style="fill:#9AE07A;" d="M193.982,162.877l-0.207,30.793c-0.025,3.781-2.736,5.347-6.024,3.478l-26.771-15.217
			L193.982,162.877z"/>
		<path style="fill:#9AE07A;" d="M134.329,58.423h-8.245l49.889,86.412c1.335,2.312,0.543,5.268-1.77,6.603
			c-2.312,1.335-5.268,0.542-6.603-1.771l-50.1-86.776v44.861l41.695,72.218l33.982-19.618L134.329,58.423z"/>
	</g>
	<polygon style="fill:#9AE07A;" points="235.139,32.763 40.342,32.763 40.342,7.5 227.321,7.5 	"/>
	<polygon style="fill:#D1D3D3;" points="227.321,58.025 277.846,58.025 227.321,7.5 	"/>
	<path style="fill:#333E48;" d="M115.685,243.336c2.035,0,3.938,0.284,5.71,0.854c1.772,0.568,3.544,1.269,5.316,2.1l3.971-10.206
		c-4.726-2.253-9.681-3.38-14.866-3.38c-4.748,0-8.877,1.012-12.389,3.035c-3.511,2.023-6.203,4.918-8.073,8.68
		c-1.871,3.764-2.806,8.129-2.806,13.095c0,7.942,1.931,14.013,5.792,18.214s9.413,6.301,16.655,6.301
		c5.054,0,9.583-0.886,13.586-2.658V268.41c-2.013,0.832-4.015,1.543-6.006,2.133c-1.991,0.591-4.048,0.887-6.169,0.887
		c-7.023,0-10.535-4.616-10.535-13.85c0-4.441,0.864-7.926,2.593-10.452C110.193,244.6,112.6,243.336,115.685,243.336z
		 M154.541,233.392h-16.606v47.979h15.523c7.985,0,14.183-2.166,18.591-6.498s6.613-10.502,6.613-18.509
		c0-7.438-2.096-13.127-6.285-17.065C168.188,235.361,162.242,233.392,154.541,233.392z M162.45,267.309
		c-1.838,2.287-4.726,3.43-8.664,3.43h-2.888v-26.877h3.773c3.545,0,6.187,1.061,7.926,3.183s2.609,5.382,2.609,9.78
		C165.207,261.527,164.288,265.023,162.45,267.309z M222.538,247.568c0-9.451-6.52-14.177-19.559-14.177h-15.72v47.979h12.963
		v-17.459h3.281l10.174,17.459h14.702l-13.98-20.904C219.825,257.426,222.538,253.127,222.538,247.568z M202.65,254.166h-2.428
		v-10.962h2.56c4.441,0,6.662,1.652,6.662,4.956C209.444,252.164,207.18,254.166,202.65,254.166z M283.149,52.723L232.625,2.197
		C231.218,0.79,229.311,0,227.321,0H40.342c-4.142,0-7.5,3.358-7.5,7.5v303.188c0,4.143,3.358,7.5,7.5,7.5h237.504
		c4.142,0,7.5-3.357,7.5-7.5V58.025C285.346,56.036,284.556,54.129,283.149,52.723z M234.821,25.606l24.918,24.919h-24.918
		L234.821,25.606L234.821,25.606z M47.842,15h171.979v10.263H47.842V15z M270.346,303.188H47.842V40.263h171.979v17.763
		c0,4.143,3.358,7.5,7.5,7.5h43.024v237.662H270.346z"/>
</g>
<g>
</g>
<g>
</g>
<g>
</g>
<g>
</g>
<g>
</g>
<g>
</g>
<g>
</g>
<g>
</g>
<g>
</g>
<g>
</g>
<g>
</g>
<g>
</g>
<g>
</g>
<g>
</g>
<g>
</g>
</svg>
