<?xml version="1.0" encoding="iso-8859-1"?>
<!-- Generator: Adobe Illustrator 19.0.0, SVG Export Plug-In . SVG Version: 6.00 Build 0)  -->
<svg version="1.1" id="Layer_1" xmlns="http://www.w3.org/2000/svg" xmlns:xlink="http://www.w3.org/1999/xlink" x="0px" y="0px"
	 viewBox="0 0 318.188 318.188" style="enable-background:new 0 0 318.188 318.188;" xml:space="preserve">
<g>
	<polygon style="fill:#E4E4E4;" points="227.321,7.5 40.342,7.5 40.342,310.688 277.846,310.688 277.846,58.025 	"/>
	<polygon style="fill:#004A94;" points="235.14,32.763 40.342,32.763 40.342,7.5 227.321,7.5 	"/>
	<g>
		<path style="fill:#004A94;" d="M107.628,129.835c3.615,0,6.452-0.699,8.511-2.098c2.058-1.398,3.088-3.372,3.088-5.917v-11.976
			c0-4.37,0.77-7.639,2.309-9.808c1.541-2.169,4.048-3.748,7.521-4.739c3.474-0.99,8.275-1.485,14.406-1.485v13.156
			c-2.798,0.094-4.692,0.307-5.683,0.636c-0.989,0.331-1.783,0.841-2.381,1.532c-0.596,0.692-0.895,1.636-0.895,2.83v12.778
			c0,3.553-0.888,6.28-2.665,8.181c-1.776,1.902-4.66,3.135-8.651,3.701v0.566c4.022,0.628,6.914,1.871,8.675,3.725
			c1.759,1.855,2.641,4.479,2.641,7.874v13.014c0,1.226,0.33,2.184,0.991,2.876c0.659,0.691,1.539,1.203,2.639,1.533
			c1.1,0.33,2.876,0.542,5.329,0.636v13.108c-6.193,0-11.019-0.503-14.476-1.508c-3.458-1.007-5.949-2.602-7.473-4.786
			c-1.525-2.185-2.287-5.493-2.287-9.926v-11.693c0-2.515-1.054-4.479-3.16-5.894s-4.919-2.123-8.44-2.123v-14.193H107.628z"/>
		<path style="fill:#004A94;" d="M210.56,144.027c-3.489,0-6.287,0.708-8.393,2.123c-2.106,1.415-3.159,3.379-3.159,5.894v11.693
			c0,4.401-0.771,7.701-2.312,9.902c-1.54,2.2-4.039,3.803-7.496,4.81c-3.458,1.005-8.268,1.508-14.429,1.508v-13.108
			c3.396-0.126,5.737-0.589,7.026-1.392c1.287-0.801,1.933-2.019,1.933-3.654V148.79c0-3.395,0.881-6.019,2.641-7.874
			c1.761-1.854,4.651-3.096,8.676-3.725v-0.566c-3.992-0.565-6.877-1.799-8.651-3.701c-1.776-1.901-2.665-4.628-2.665-8.181v-12.778
			c0-1.225-0.307-2.176-0.918-2.852c-0.613-0.676-1.4-1.179-2.359-1.509c-0.958-0.33-2.853-0.542-5.682-0.636V93.811
			c6.161,0,10.971,0.495,14.429,1.485c3.457,0.991,5.956,2.57,7.496,4.739c1.541,2.169,2.312,5.438,2.312,9.808v11.976
			c0,2.546,1.021,4.519,3.064,5.917c2.043,1.399,4.873,2.098,8.487,2.098V144.027z"/>
	</g>
	<polygon style="fill:#D1D3D3;" points="227.321,58.025 277.846,58.025 227.321,7.5 	"/>
	<path style="fill:#333E48;" d="M283.149,52.722L232.625,2.197C231.218,0.79,229.311,0,227.321,0H40.342c-4.142,0-7.5,3.358-7.5,7.5
		v303.188c0,4.142,3.358,7.5,7.5,7.5h237.504c4.143,0,7.5-3.358,7.5-7.5V58.025C285.346,56.036,284.556,54.129,283.149,52.722z
		 M234.821,25.606l24.918,24.919h-24.918L234.821,25.606L234.821,25.606z M47.842,15h171.979v10.263H47.842V15z M270.346,303.188
		H47.842V40.263h171.979v17.763c0,4.142,3.357,7.5,7.5,7.5h43.024v237.662H270.346z M124.299,243.335
		c2.035,0,3.938,0.285,5.71,0.854s3.544,1.269,5.316,2.1l3.971-10.206c-4.726-2.253-9.681-3.38-14.866-3.38
		c-4.748,0-8.877,1.012-12.389,3.036c-3.511,2.024-6.203,4.917-8.073,8.68c-1.871,3.763-2.806,8.128-2.806,13.094
		c0,7.942,1.931,14.013,5.792,18.214s9.413,6.301,16.655,6.301c5.054,0,9.583-0.886,13.586-2.658v-10.961
		c-2.013,0.832-4.015,1.542-6.006,2.133c-1.991,0.59-4.048,0.886-6.169,0.886c-7.023,0-10.535-4.616-10.535-13.849
		c0-4.441,0.864-7.925,2.593-10.452C118.808,244.599,121.214,243.335,124.299,243.335z M158.659,243.959
		c0.766-0.591,1.99-0.886,3.676-0.886c3.26,0,7.133,1.029,11.617,3.085l3.971-10.009c-5.162-2.297-10.229-3.446-15.193-3.446
		c-5.623,0-10.043,1.236-13.26,3.708c-3.215,2.473-4.823,5.918-4.823,10.337c0,2.363,0.377,4.409,1.132,6.137
		c0.755,1.729,1.914,3.26,3.478,4.595s3.91,2.713,7.039,4.135c3.457,1.554,5.584,2.582,6.385,3.085
		c0.797,0.503,1.377,1.001,1.738,1.493s0.541,1.067,0.541,1.723c0,1.05-0.447,1.909-1.346,2.576
		c-0.896,0.667-2.309,1.001-4.232,1.001c-2.232,0-4.682-0.355-7.352-1.067c-2.67-0.71-5.24-1.701-7.712-2.97v11.552
		c2.341,1.116,4.595,1.898,6.761,2.346s4.846,0.673,8.039,0.673c3.83,0,7.166-0.64,10.01-1.92s5.021-3.073,6.531-5.382
		c1.51-2.308,2.264-4.95,2.264-7.925c0-3.238-0.803-5.924-2.412-8.057c-1.607-2.133-4.479-4.129-8.613-5.989
		c-4.311-1.969-6.953-3.326-7.926-4.07c-0.975-0.743-1.461-1.586-1.461-2.527C157.511,245.283,157.894,244.55,158.659,243.959z
		 M197.45,243.959c0.766-0.591,1.99-0.886,3.676-0.886c3.26,0,7.132,1.029,11.617,3.085l3.971-10.009
		c-5.163-2.297-10.229-3.446-15.194-3.446c-5.623,0-10.042,1.236-13.259,3.708c-3.216,2.473-4.823,5.918-4.823,10.337
		c0,2.363,0.377,4.409,1.132,6.137c0.755,1.729,1.914,3.26,3.479,4.595s3.91,2.713,7.039,4.135c3.457,1.554,5.584,2.582,6.384,3.085
		c0.798,0.503,1.378,1.001,1.739,1.493c0.36,0.492,0.541,1.067,0.541,1.723c0,1.05-0.448,1.909-1.346,2.576
		s-2.309,1.001-4.233,1.001c-2.231,0-4.682-0.355-7.351-1.067c-2.67-0.71-5.24-1.701-7.713-2.97v11.552
		c2.341,1.116,4.595,1.898,6.761,2.346s4.846,0.673,8.04,0.673c3.829,0,7.165-0.64,10.01-1.92c2.844-1.28,5.021-3.073,6.53-5.382
		c1.51-2.308,2.265-4.95,2.265-7.925c0-3.238-0.804-5.924-2.412-8.057c-1.607-2.133-4.479-4.129-8.614-5.989
		c-4.311-1.969-6.952-3.326-7.926-4.07c-0.974-0.743-1.46-1.586-1.46-2.527C196.302,245.283,196.684,244.55,197.45,243.959z"/>
</g>
<g>
</g>
<g>
</g>
<g>
</g>
<g>
</g>
<g>
</g>
<g>
</g>
<g>
</g>
<g>
</g>
<g>
</g>
<g>
</g>
<g>
</g>
<g>
</g>
<g>
</g>
<g>
</g>
<g>
</g>
</svg>
