<?xml version="1.0" encoding="iso-8859-1"?>
<!-- Generator: Adobe Illustrator 19.0.0, SVG Export Plug-In . SVG Version: 6.00 Build 0)  -->
<svg version="1.1" id="Layer_1" xmlns="http://www.w3.org/2000/svg" xmlns:xlink="http://www.w3.org/1999/xlink" x="0px" y="0px"
	 viewBox="0 0 318.188 318.188" style="enable-background:new 0 0 318.188 318.188;" xml:space="preserve">
<g>
	<polygon style="fill:#E4E4E4;" points="227.321,7.5 40.342,7.5 40.342,310.688 277.846,310.688 277.846,58.025 	"/>
	<polygon style="fill:#A4A9AD;" points="235.14,32.763 40.342,32.763 40.342,7.5 227.321,7.5 	"/>
	<g>
		<path style="fill:#A4A9AD;" d="M179.267,107.224c-0.465-1.391-1.933-2.023-3.265-1.402l-5.454,2.543
			c-2.544-5.456-6.272-10.248-10.866-14.033l3.833-4.647c0.934-1.133,0.69-2.713-0.541-3.512l-14.669-7.34
			c-1.376-0.507-2.789,0.242-3.136,1.671l-1.427,5.846c-3.055-0.745-6.243-1.149-9.528-1.149c-3.059,0-6.034,0.354-8.896,1.004
			l-1.332-5.88c-0.325-1.433-1.724-2.205-3.109-1.72l-14.779,7.112c-1.245,0.779-1.514,2.354-0.599,3.503l3.757,4.712
			c-4.657,3.713-8.473,8.437-11.103,13.846l-5.412-2.634c-1.32-0.642-2.799-0.034-3.286,1.351l-3.694,15.981
			c-0.17,1.457,0.891,2.652,2.359,2.657l6.021,0.016c0,0.044-0.004,0.087-0.004,0.13c0,6.154,1.392,11.981,3.87,17.192l-5.44,2.576
			c-1.326,0.629-1.778,2.162-1.001,3.409l10.159,12.877c1.03,1.045,2.627,0.965,3.549-0.18l3.779-4.688
			c4.586,3.705,10.005,6.414,15.934,7.812l-1.394,5.863c-0.339,1.429,0.576,2.74,2.034,2.914l16.401,0.127
			c1.459-0.151,2.396-1.447,2.08-2.883l-1.295-5.876c5.957-1.303,11.415-3.93,16.056-7.558l3.707,4.76
			c0.903,1.158,2.499,1.265,3.545,0.236l10.358-12.719c0.794-1.233,0.37-2.774-0.948-3.426l-5.395-2.664
			c2.584-5.211,4.064-11.063,4.143-17.256l6.033,0.084c1.469,0.02,2.55-1.158,2.401-2.619L179.267,107.224z M134.214,140.582
			c-8.453,0-15.305-6.853-15.305-15.305c0-8.453,6.853-15.306,15.305-15.306c8.453,0,15.306,6.853,15.306,15.306
			C149.52,133.729,142.667,140.582,134.214,140.582z"/>
		<circle style="fill:#D1D3D3;" cx="134.214" cy="99.361" r="2.358"/>
		<circle style="fill:#D1D3D3;" cx="108.299" cy="125.276" r="2.358"/>
		<circle style="fill:#D1D3D3;" cx="134.214" cy="151.192" r="2.358"/>
		<circle style="fill:#D1D3D3;" cx="160.129" cy="125.276" r="2.358"/>
	</g>
	<g>
		<path style="fill:#A4A9AD;" d="M216.614,117.104c-0.798-0.398-1.701-0.038-2.006,0.801l-1.251,3.437
			c-3.438-1.252-7.1-1.708-10.701-1.361l-0.351-3.645c-0.085-0.888-0.869-1.463-1.742-1.276l-9.458,3.15
			c-0.81,0.372-1.095,1.302-0.63,2.065l1.899,3.125c-1.634,0.993-3.178,2.188-4.589,3.601c-1.315,1.315-2.441,2.746-3.393,4.256
			l-3.101-1.955c-0.754-0.476-1.688-0.207-2.074,0.597l-3.296,9.409c-0.201,0.869,0.361,1.663,1.248,1.763l3.641,0.41
			c-0.406,3.599-0.017,7.269,1.178,10.723l-3.457,1.195c-0.844,0.29-1.218,1.188-0.833,1.993l5.281,8.455
			c0.554,0.7,1.523,0.759,2.156,0.128l2.596-2.58c0.019,0.019,0.035,0.038,0.054,0.058c2.645,2.645,5.748,4.553,9.053,5.727
			l-1.231,3.444c-0.3,0.84,0.165,1.693,1.034,1.896l9.901,1.169c0.892,0.006,1.544-0.715,1.449-1.603l-0.392-3.641
			c3.564-0.379,7.057-1.544,10.207-3.49l1.92,3.119c0.468,0.76,1.426,0.932,2.126,0.379l7.104-6.995
			c0.562-0.691,0.408-1.651-0.344-2.132l-3.083-1.971c2-3.12,3.218-6.594,3.653-10.147l3.64,0.451
			c0.885,0.11,1.617-0.53,1.625-1.422l-1.015-9.918c-0.188-0.872-1.034-1.353-1.879-1.064l-3.463,1.173
			c-1.13-3.35-3.009-6.501-5.637-9.196l2.63-2.558c0.639-0.622,0.598-1.594-0.094-2.157L216.614,117.104z M211.588,150.804
			c-3.633,3.633-9.522,3.633-13.155,0s-3.634-9.523,0-13.156s9.523-3.633,13.157,0C215.222,141.28,215.221,147.171,211.588,150.804z
			"/>
		<circle style="fill:#D1D3D3;" cx="193.873" cy="133.087" r="1.433"/>
		<circle style="fill:#D1D3D3;" cx="193.872" cy="155.363" r="1.433"/>
		<circle style="fill:#D1D3D3;" cx="216.149" cy="155.364" r="1.433"/>
		<circle style="fill:#D1D3D3;" cx="216.148" cy="133.087" r="1.434"/>
	</g>
	<polygon style="fill:#D1D3D3;" points="227.321,58.025 277.846,58.025 227.321,7.5 	"/>
	<path style="fill:#333E48;" d="M200.495,225.868h-12.536v46.401h30.405v-10.125h-17.869V225.868z M283.149,52.723L232.625,2.197
		C231.218,0.79,229.311,0,227.321,0H40.342c-4.142,0-7.5,3.358-7.5,7.5v303.188c0,4.143,3.358,7.5,7.5,7.5h237.504
		c4.142,0,7.5-3.357,7.5-7.5V58.025C285.346,56.036,284.556,54.129,283.149,52.723z M234.821,25.606l24.918,24.919h-24.918
		L234.821,25.606L234.821,25.606z M47.842,15h171.979v10.263H47.842V15z M270.346,303.188H47.842V40.263h171.979v17.763
		c0,4.143,3.358,7.5,7.5,7.5h43.024v237.662H270.346z M162.663,225.868h-12.536v46.401h30.405v-10.125h-17.869V225.868z
		 M118.484,225.868h-16.06v46.401h15.013c7.723,0,13.716-2.095,17.979-6.284s6.396-10.156,6.396-17.9
		c0-7.194-2.026-12.695-6.078-16.504C131.682,227.772,125.932,225.868,118.484,225.868z M126.133,258.67
		c-1.777,2.211-4.57,3.316-8.379,3.316h-2.793v-25.994h3.65c3.428,0,5.982,1.027,7.665,3.079c1.682,2.053,2.522,5.205,2.522,9.458
		C128.799,253.078,127.91,256.459,126.133,258.67z"/>
</g>
<g>
</g>
<g>
</g>
<g>
</g>
<g>
</g>
<g>
</g>
<g>
</g>
<g>
</g>
<g>
</g>
<g>
</g>
<g>
</g>
<g>
</g>
<g>
</g>
<g>
</g>
<g>
</g>
<g>
</g>
</svg>
