<?xml version="1.0" encoding="iso-8859-1"?>
<!-- Generator: Adobe Illustrator 19.0.0, SVG Export Plug-In . SVG Version: 6.00 Build 0)  -->
<svg version="1.1" id="Layer_1" xmlns="http://www.w3.org/2000/svg" xmlns:xlink="http://www.w3.org/1999/xlink" x="0px" y="0px"
	 viewBox="0 0 318.188 318.188" style="enable-background:new 0 0 318.188 318.188;" xml:space="preserve">
<g>
	<polygon style="fill:#E8E8E8;" points="227.321,7.5 40.342,7.5 40.342,310.688 277.846,310.688 277.846,58.025 	"/>
	<g>
		<rect x="98.402" y="69.204" style="fill:#004A94;" width="119.89" height="119.889"/>
		<rect x="108.803" y="79.605" style="fill:#FFFFFF;" width="99.089" height="99.087"/>
		<g>
			<path style="fill:#004A94;" d="M137.547,149.236l1.845-4.797l4.337-10.702l15.453-35.612h15.499v36.535
				c0,4.797-0.4,9.657-1.199,14.577c0.307-0.861,2.353-6.181,6.135-15.961l13.978-35.15h17.852l-29.292,67.441H160.89v-28.6
				c0-4.766,0.199-9.749,0.6-14.946c-1.016,4.09-2.83,9.457-5.443,16.099l-11.671,27.447h-20.021l-2.26-67.441h17.067l-0.461,33.813
				C138.516,140.149,138.131,145.915,137.547,149.236z"/>
		</g>
	</g>
	<polygon style="fill:#004A94;" points="235.14,32.763 40.342,32.763 40.342,7.5 227.321,7.5 	"/>
	<polygon style="fill:#D1D3D3;" points="227.321,58.025 277.846,58.025 227.321,7.5 	"/>
	<path style="fill:#333E48;" d="M283.149,52.722L232.625,2.197C231.218,0.79,229.311,0,227.321,0H40.342c-4.143,0-7.5,3.358-7.5,7.5
		v303.188c0,4.142,3.357,7.5,7.5,7.5h237.504c4.143,0,7.5-3.358,7.5-7.5V58.025C285.346,56.036,284.556,54.129,283.149,52.722z
		 M234.821,25.606l24.918,24.919h-24.918L234.821,25.606L234.821,25.606z M47.842,15h171.979v10.263H47.842V15z M270.346,303.188
		H47.842V40.263h171.979v17.763c0,4.142,3.357,7.5,7.5,7.5h43.024v237.662H270.346z M161.235,232.638
		c-7.613,0-13.418,2.105-17.41,6.317s-5.988,10.31-5.988,18.295c0,8.073,2.006,14.222,6.021,18.444
		c4.014,4.223,9.785,6.333,17.311,6.333c7.637,0,13.434-2.1,17.395-6.301c3.959-4.201,5.939-10.337,5.939-18.411
		c0-8.095-1.969-14.231-5.906-18.411C174.657,234.727,168.87,232.638,161.235,232.638z M168.472,267.85
		c-1.586,2.254-4.02,3.38-7.303,3.38c-6.453,0-9.68-4.638-9.68-13.915c0-9.364,3.248-14.046,9.746-14.046
		c3.193,0,5.596,1.144,7.203,3.429c1.607,2.287,2.412,5.825,2.412,10.617C170.851,262.085,170.058,265.597,168.472,267.85z
		 M106.89,233.392H90.284v47.979h15.522c7.985,0,14.183-2.166,18.591-6.498c4.408-4.332,6.613-10.501,6.613-18.509
		c0-7.438-2.096-13.127-6.285-17.065C120.536,235.361,114.591,233.392,106.89,233.392z M114.798,267.309
		c-1.837,2.287-4.725,3.43-8.663,3.43h-2.888v-26.877h3.773c3.545,0,6.187,1.061,7.926,3.183c1.739,2.123,2.609,5.382,2.609,9.78
		C117.556,261.528,116.636,265.023,114.798,267.309z M214.531,243.335c2.034,0,3.938,0.285,5.71,0.854s3.544,1.269,5.316,2.1
		l3.971-10.206c-4.726-2.253-9.681-3.38-14.866-3.38c-4.748,0-8.877,1.012-12.389,3.036s-6.202,4.917-8.073,8.68
		c-1.87,3.763-2.806,8.128-2.806,13.094c0,7.942,1.931,14.013,5.792,18.214s9.413,6.301,16.655,6.301
		c5.054,0,9.583-0.886,13.586-2.658v-10.961c-2.013,0.832-4.015,1.542-6.005,2.133c-1.991,0.59-4.048,0.886-6.17,0.886
		c-7.023,0-10.534-4.616-10.534-13.849c0-4.44,0.863-7.925,2.592-10.452S211.446,243.335,214.531,243.335z"/>
</g>
<g>
</g>
<g>
</g>
<g>
</g>
<g>
</g>
<g>
</g>
<g>
</g>
<g>
</g>
<g>
</g>
<g>
</g>
<g>
</g>
<g>
</g>
<g>
</g>
<g>
</g>
<g>
</g>
<g>
</g>
</svg>
