<?xml version="1.0" encoding="iso-8859-1"?>
<!-- Generator: Adobe Illustrator 19.0.0, SVG Export Plug-In . SVG Version: 6.00 Build 0)  -->
<svg version="1.1" id="Layer_1" xmlns="http://www.w3.org/2000/svg" xmlns:xlink="http://www.w3.org/1999/xlink" x="0px" y="0px"
	 viewBox="0 0 318.188 318.188" style="enable-background:new 0 0 318.188 318.188;" xml:space="preserve">
<g>
	<polygon style="fill:#E8E8E8;" points="227.321,7.5 40.342,7.5 40.342,310.688 277.846,310.688 277.846,58.025 	"/>
	<polygon style="fill:#9AE07A;" points="235.14,32.763 40.342,32.763 40.342,7.5 227.321,7.5 	"/>
	<g>
		<path style="fill:#9AE07A;" d="M146.917,141.39c0,12.339-3.512,21.79-10.536,28.353s-17.167,9.844-30.429,9.844H84.727V104.63
			h23.533c12.236,0,21.738,3.23,28.506,9.69S146.917,129.803,146.917,141.39z M130.408,141.8c0-16.099-7.11-24.147-21.328-24.147
			h-8.459v48.809h6.819C122.751,166.461,130.408,158.24,130.408,141.8z"/>
		<path style="fill:#9AE07A;" d="M208.337,179.586l-4.409-20.047l-5.947-25.327h-0.359l-10.459,45.374h-16.816l-16.304-57.32h15.586
			l6.614,25.379c1.059,4.547,2.136,10.818,3.23,18.816h0.308c0.136-2.598,0.734-6.717,1.794-12.356l0.82-4.358l7.075-27.48h17.227
			l6.716,27.48c0.136,0.753,0.35,1.863,0.641,3.333c0.29,1.47,0.572,3.034,0.846,4.69c0.273,1.659,0.521,3.281,0.744,4.871
			c0.222,1.59,0.35,2.863,0.384,3.82h0.308c0.308-2.461,0.854-5.836,1.641-10.127c0.786-4.288,1.35-7.186,1.692-8.689l6.87-25.379
			h15.33l-16.509,57.32H208.337z"/>
	</g>
	<polygon style="fill:#D1D3D3;" points="227.321,58.025 277.846,58.025 227.321,7.5 	"/>
	<path style="fill:#333E48;" d="M283.149,52.723L232.625,2.197C231.218,0.79,229.311,0,227.321,0H40.342c-4.142,0-7.5,3.358-7.5,7.5
		v303.188c0,4.143,3.358,7.5,7.5,7.5h237.504c4.142,0,7.5-3.357,7.5-7.5V58.025C285.346,56.036,284.556,54.129,283.149,52.723z
		 M234.821,25.606l24.918,24.919h-24.918L234.821,25.606L234.821,25.606z M47.842,15h171.979v10.263H47.842V15z M270.346,303.188
		H47.842V40.263h171.979v17.763c0,4.143,3.358,7.5,7.5,7.5h43.024v237.662H270.346z M199.747,243.992h11.716v37.379h12.963v-37.379
		h11.683v-10.601h-36.361L199.747,243.992L199.747,243.992z M179.235,257.513c-1.269,5.995-2.046,10.206-2.33,12.635
		c-0.24-1.882-0.722-4.726-1.443-8.532s-1.434-7.166-2.133-10.075l-4.103-18.148h-12.012l-4.233,18.148
		c-0.635,2.517-1.318,5.688-2.051,9.517s-1.242,6.859-1.526,9.091c-0.438-3.15-1.247-7.384-2.429-12.7l-5.217-24.056h-12.503
		l11.88,47.979h15.325c2.801-12.58,4.393-19.756,4.775-21.528s0.771-3.714,1.165-5.825s0.678-3.877,0.854-5.3
		c0.218,1.751,0.563,3.927,1.033,6.53s0.815,4.344,1.034,5.219l4.595,20.904h15.325l11.814-47.979h-12.503L179.235,257.513z
		 M100.704,233.392H84.098v47.979h15.523c7.985,0,14.182-2.166,18.591-6.498s6.613-10.502,6.613-18.509
		c0-7.438-2.095-13.127-6.284-17.065C114.35,235.361,108.404,233.392,100.704,233.392z M108.612,267.309
		c-1.837,2.287-4.726,3.43-8.664,3.43H97.06v-26.877h3.774c3.544,0,6.186,1.061,7.925,3.183s2.609,5.382,2.609,9.78
		C111.369,261.527,110.45,265.023,108.612,267.309z"/>
</g>
<g>
</g>
<g>
</g>
<g>
</g>
<g>
</g>
<g>
</g>
<g>
</g>
<g>
</g>
<g>
</g>
<g>
</g>
<g>
</g>
<g>
</g>
<g>
</g>
<g>
</g>
<g>
</g>
<g>
</g>
</svg>
