<?xml version="1.0" encoding="iso-8859-1"?>
<!-- Generator: Adobe Illustrator 19.0.0, SVG Export Plug-In . SVG Version: 6.00 Build 0)  -->
<svg version="1.1" id="Layer_1" xmlns="http://www.w3.org/2000/svg" xmlns:xlink="http://www.w3.org/1999/xlink" x="0px" y="0px"
	 viewBox="0 0 318.188 318.188" style="enable-background:new 0 0 318.188 318.188;" xml:space="preserve">
<g>
	<polygon style="fill:#E4E4E4;" points="227.321,7.5 40.342,7.5 40.342,310.688 277.846,310.688 277.846,58.025 	"/>
	<g>
		<path style="fill:#FB9200;" d="M149.354,131.544h-47.617V83.927h47.617V131.544z M106.737,126.544h37.617V88.927h-37.617V126.544z
			"/>
		<rect x="123.046" y="20.131" style="fill:#FB9200;" width="5" height="66.296"/>
		<rect x="40.342" y="105.236" style="fill:#FB9200;" width="63.896" height="5"/>
		<rect x="123.046" y="129.045" style="fill:#FB9200;" width="5" height="70.296"/>
		<rect x="146.854" y="105.236" style="fill:#FB9200;" width="130.991" height="5"/>
	</g>
	<polygon style="fill:#004A94;" points="235.14,32.763 40.342,32.763 40.342,7.5 227.321,7.5 	"/>
	<polygon style="fill:#D1D3D3;" points="227.321,58.025 277.846,58.025 227.321,7.5 	"/>
	<path style="fill:#333E48;" d="M283.149,52.722L232.625,2.197C231.218,0.79,229.311,0,227.321,0H40.342c-4.143,0-7.5,3.358-7.5,7.5
		v303.188c0,4.142,3.357,7.5,7.5,7.5h237.504c4.143,0,7.5-3.358,7.5-7.5V58.025C285.346,56.036,284.556,54.129,283.149,52.722z
		 M234.821,25.606l24.918,24.919h-24.918L234.821,25.606L234.821,25.606z M47.842,15h171.979v10.263H47.842V15z M270.346,303.188
		H47.842V40.263h171.979v17.763c0,4.142,3.357,7.5,7.5,7.5h43.024v237.662H270.346z M174.214,257.513
		c-1.268,5.995-2.045,10.206-2.33,12.635c-0.24-1.881-0.721-4.726-1.443-8.533c-0.721-3.807-1.434-7.165-2.133-10.075l-4.102-18.148
		h-12.012l-4.234,18.148c-0.635,2.516-1.317,5.688-2.051,9.517c-0.732,3.829-1.242,6.859-1.525,9.09
		c-0.438-3.15-1.247-7.384-2.429-12.7l-5.218-24.056h-12.504l11.881,47.979h15.324c2.801-12.58,4.393-19.756,4.775-21.528
		s0.771-3.713,1.166-5.825c0.393-2.111,0.678-3.877,0.854-5.3c0.217,1.75,0.563,3.927,1.033,6.531s0.814,4.343,1.033,5.218
		l4.596,20.905h15.324l11.814-47.979h-12.502L174.214,257.513z M95.683,233.392H79.077v47.979H94.6
		c7.985,0,14.183-2.166,18.591-6.498s6.613-10.501,6.613-18.509c0-7.438-2.096-13.127-6.285-17.065
		C109.329,235.361,103.384,233.392,95.683,233.392z M103.591,267.309c-1.837,2.287-4.725,3.43-8.663,3.43H92.04v-26.877h3.773
		c3.545,0,6.187,1.061,7.926,3.183c1.739,2.123,2.609,5.382,2.609,9.78C106.349,261.528,105.429,265.023,103.591,267.309z
		 M203.094,239.167c-4.419,4.311-6.629,10.338-6.629,18.083c0,7.942,2.019,14.058,6.055,18.345
		c4.037,4.288,9.752,6.432,17.147,6.432c6.738,0,12.919-0.962,18.542-2.888v-25.86h-20.708v10.009h8.565v7.515
		c-1.619,0.373-3.392,0.558-5.316,0.558c-3.523,0-6.219-1.176-8.09-3.528c-1.87-2.352-2.806-5.771-2.806-10.256
		c0-4.572,1.033-8.089,3.102-10.551c2.067-2.461,4.993-3.692,8.778-3.692c4.135,0,7.931,0.854,11.388,2.56l4.103-10.174
		c-1.991-0.875-4.327-1.597-7.007-2.166c-2.681-0.568-5.53-0.853-8.549-0.853C213.705,232.703,207.513,234.858,203.094,239.167z"/>
</g>
<g>
</g>
<g>
</g>
<g>
</g>
<g>
</g>
<g>
</g>
<g>
</g>
<g>
</g>
<g>
</g>
<g>
</g>
<g>
</g>
<g>
</g>
<g>
</g>
<g>
</g>
<g>
</g>
<g>
</g>
</svg>
