<?xml version="1.0" encoding="iso-8859-1"?>
<!-- Generator: Adobe Illustrator 19.0.0, SVG Export Plug-In . SVG Version: 6.00 Build 0)  -->
<svg version="1.1" id="Layer_1" xmlns="http://www.w3.org/2000/svg" xmlns:xlink="http://www.w3.org/1999/xlink" x="0px" y="0px"
	 viewBox="0 0 318.188 318.188" style="enable-background:new 0 0 318.188 318.188;" xml:space="preserve">
<g>
	<polygon style="fill:#E4E4E4;" points="227.321,7.5 40.342,7.5 40.342,310.688 277.846,310.688 277.846,58.025 	"/>
	<g>
		<path style="fill:#A4A9AD;" d="M218.872,99.077c0-3.568-2.92-6.488-6.488-6.488H105.805c-3.568,0-6.488,2.92-6.488,6.488v55.682
			c0,3.568,2.92,6.488,6.488,6.488h106.579c3.568,0,6.488-2.92,6.488-6.488L218.872,99.077L218.872,99.077z"/>
		<path style="fill:#D1D3D3;" d="M159.095,115.935l-57.596,43.658c1.148,1.024,2.655,1.654,4.306,1.654h106.579
			c1.65,0,3.157-0.63,4.307-1.654L159.095,115.935z"/>
		<path style="fill:#FFFFFF;" d="M159.095,137.901l-57.596-43.658c1.148-1.024,2.655-1.654,4.306-1.654h106.579
			c1.65,0,3.157,0.63,4.307,1.654L159.095,137.901z"/>
	</g>
	<polygon style="fill:#A4A9AD;" points="235.14,32.763 40.342,32.763 40.342,7.5 227.321,7.5 	"/>
	<polygon style="fill:#D1D3D3;" points="227.321,58.025 277.846,58.025 227.321,7.5 	"/>
	<path style="fill:#333E48;" d="M283.149,52.723L232.625,2.197C231.218,0.79,229.311,0,227.321,0H40.342c-4.143,0-7.5,3.358-7.5,7.5
		v303.188c0,4.143,3.357,7.5,7.5,7.5h237.504c4.143,0,7.5-3.357,7.5-7.5V58.025C285.346,56.036,284.556,54.129,283.149,52.723z
		 M234.821,25.606l24.918,24.919h-24.918L234.821,25.606L234.821,25.606z M47.842,15h171.979v10.263H47.842V15z M270.346,303.188
		H47.842V40.263h171.979v17.763c0,4.143,3.357,7.5,7.5,7.5h43.024v237.662H270.346z M158.236,258.813h-0.254l-9.68-32.944h-16.694
		v46.401h11.108v-20.154c0-3.152-0.223-7.574-0.666-13.266h0.285l9.49,33.42h11.934l9.362-33.357h0.286
		c-0.254,5.037-0.397,8.199-0.429,9.49s-0.048,2.465-0.048,3.523v20.344h11.521v-46.401h-16.727L158.236,258.813z M206.986,225.868
		H194.45v46.401h30.405v-10.125h-17.869V225.868z M95.935,272.27h27.549v-10.22h-15.013v-8.76h13.902v-10.062h-13.902v-7.299h15.013
		v-10.062H95.935V272.27z"/>
</g>
<g>
</g>
<g>
</g>
<g>
</g>
<g>
</g>
<g>
</g>
<g>
</g>
<g>
</g>
<g>
</g>
<g>
</g>
<g>
</g>
<g>
</g>
<g>
</g>
<g>
</g>
<g>
</g>
<g>
</g>
</svg>
