<?xml version="1.0" encoding="iso-8859-1"?>
<!-- Generator: Adobe Illustrator 19.0.0, SVG Export Plug-In . SVG Version: 6.00 Build 0)  -->
<svg version="1.1" id="Layer_1" xmlns="http://www.w3.org/2000/svg" xmlns:xlink="http://www.w3.org/1999/xlink" x="0px" y="0px"
	 viewBox="0 0 318.188 318.188" style="enable-background:new 0 0 318.188 318.188;" xml:space="preserve">
<g>
	<polygon style="fill:#E8E8E8;" points="227.321,7.5 40.342,7.5 40.342,310.688 277.846,310.688 277.846,58.025 	"/>
	<polygon style="fill:#FB9200;" points="235.14,32.763 40.342,32.763 40.342,7.5 227.321,7.5 	"/>
	<polygon style="fill:#D1D3D3;" points="227.321,58.025 277.846,58.025 227.321,7.5 	"/>
	<g>
		<path style="fill:#A4A9AD;" d="M184.792,183.296l-2.726-2.725c19.774-19.775,19.774-51.952,0-71.727
			c-9.58-9.58-22.313-14.855-35.863-14.855c-13.546,0-26.282,5.276-35.862,14.855l-2.726-2.726
			c10.308-10.308,24.011-15.985,38.588-15.985s28.281,5.677,38.589,15.984C206.071,127.396,206.071,162.018,184.792,183.296z"/>
		<g>
			
				<rect x="142.938" y="106.25" transform="matrix(-0.7071 -0.7071 0.7071 -0.7071 237.1365 313.184)" style="fill:#333E48;" width="80.986" height="2.458"/>
			
				<rect x="176.289" y="100.351" transform="matrix(-0.7072 -0.7071 0.7071 -0.7072 237.1424 313.2068)" style="fill:#333E48;" width="14.287" height="14.287"/>
			<circle style="fill:#333E48;" cx="154.797" cy="78.849" r="4.439"/>
			<circle style="fill:#333E48;" cx="212.063" cy="136.115" r="4.438"/>
		</g>
		
			<rect x="176.289" y="100.351" transform="matrix(-0.7072 -0.7071 0.7071 -0.7072 237.1424 313.2068)" style="fill:#333E48;" width="14.287" height="14.287"/>
		
			<rect x="101.836" y="100.337" transform="matrix(-0.7071 -0.7071 0.7071 -0.7071 110.0371 260.5394)" style="fill:#333E48;" width="14.284" height="14.286"/>
		
			<rect x="176.286" y="174.805" transform="matrix(-0.7072 -0.7071 0.7071 -0.7072 184.4939 440.3097)" style="fill:#333E48;" width="14.287" height="14.287"/>
	</g>
	<path style="fill:#333E48;" d="M283.149,52.722L232.625,2.197C231.218,0.79,229.311,0,227.321,0H40.342c-4.142,0-7.5,3.358-7.5,7.5
		v303.188c0,4.142,3.358,7.5,7.5,7.5h237.504c4.143,0,7.5-3.358,7.5-7.5V58.025C285.346,56.036,284.556,54.129,283.149,52.722z
		 M234.821,25.606l24.918,24.919h-24.918L234.821,25.606L234.821,25.606z M47.842,15h171.979v10.263H47.842V15z M270.346,303.188
		H47.842V40.263h171.979v17.763c0,4.142,3.357,7.5,7.5,7.5h43.024v237.662H270.346z M195.924,243.959
		c0.766-0.591,1.99-0.886,3.676-0.886c3.26,0,7.132,1.029,11.617,3.085l3.971-10.009c-5.163-2.297-10.229-3.446-15.194-3.446
		c-5.623,0-10.042,1.236-13.259,3.708c-3.216,2.473-4.823,5.918-4.823,10.337c0,2.363,0.377,4.409,1.132,6.137
		c0.755,1.729,1.914,3.26,3.479,4.595s3.91,2.713,7.039,4.135c3.457,1.554,5.584,2.582,6.384,3.085
		c0.798,0.503,1.378,1.001,1.739,1.493c0.36,0.492,0.541,1.067,0.541,1.723c0,1.05-0.448,1.909-1.346,2.576
		s-2.309,1.001-4.233,1.001c-2.231,0-4.682-0.355-7.351-1.067c-2.67-0.71-5.24-1.701-7.713-2.97v11.552
		c2.341,1.116,4.595,1.898,6.761,2.346s4.846,0.673,8.04,0.673c3.829,0,7.165-0.64,10.01-1.92c2.844-1.28,5.021-3.073,6.53-5.382
		c1.51-2.308,2.265-4.95,2.265-7.925c0-3.238-0.804-5.924-2.412-8.057c-1.607-2.133-4.479-4.129-8.614-5.989
		c-4.311-1.969-6.952-3.326-7.926-4.07c-0.974-0.743-1.46-1.586-1.46-2.527C194.775,245.283,195.157,244.55,195.924,243.959z
		 M171.606,237.363c-3.043-2.647-7.594-3.971-13.652-3.971h-16.606v47.979h12.964v-15.917h3.643c5.818,0,10.309-1.46,13.471-4.381
		c3.162-2.92,4.742-7.061,4.742-12.421C176.167,243.773,174.646,240.01,171.606,237.363z M161.317,253.247
		c-1.148,1.094-2.697,1.641-4.645,1.641h-2.361v-11.026h3.346c3.588,0,5.383,1.619,5.383,4.857
		C163.04,250.643,162.466,252.153,161.317,253.247z M104.461,281.371h28.486v-10.567h-15.523v-9.058h14.374v-10.403h-14.374v-7.548
		h15.523v-10.403h-28.486C104.461,233.392,104.461,281.371,104.461,281.371z"/>
</g>
<g>
</g>
<g>
</g>
<g>
</g>
<g>
</g>
<g>
</g>
<g>
</g>
<g>
</g>
<g>
</g>
<g>
</g>
<g>
</g>
<g>
</g>
<g>
</g>
<g>
</g>
<g>
</g>
<g>
</g>
</svg>
