<?xml version="1.0" encoding="iso-8859-1"?>
<!-- Generator: Adobe Illustrator 19.0.0, SVG Export Plug-In . SVG Version: 6.00 Build 0)  -->
<svg version="1.1" id="Layer_1" xmlns="http://www.w3.org/2000/svg" xmlns:xlink="http://www.w3.org/1999/xlink" x="0px" y="0px"
	 viewBox="0 0 318.188 318.188" style="enable-background:new 0 0 318.188 318.188;" xml:space="preserve">
<g>
	<polygon style="fill:#E4E4E4;" points="227.321,7.5 40.342,7.5 40.342,310.688 277.846,310.688 277.846,58.025 	"/>
	<polygon style="fill:#007934;" points="235.14,32.763 40.342,32.763 40.342,7.5 227.321,7.5 	"/>
	<path style="fill:#007934;" d="M209.481,138.248c5.465-5.466,5.467-14.329,0-19.795l-48.938,48.937l-39.039-39.039l39.039-39.04
		l14.57,14.57l-22.366,22.368l9.897,9.897l27.315-27.316c2.735-2.733,2.735-7.165,0-9.898l-24.468-24.469
		c-2.733-2.733-7.163-2.733-9.897,0l-48.938,48.938c-2.732,2.733-2.732,7.165,0,9.898l48.938,48.938
		c2.734,2.733,7.164,2.733,9.897,0L209.481,138.248z"/>
	<polygon style="fill:#D1D3D3;" points="227.321,58.025 277.846,58.025 227.321,7.5 	"/>
	<path style="fill:#333E48;" d="M185.291,261.484c0,3.457-0.597,5.945-1.789,7.466s-3.112,2.281-5.759,2.281
		c-2.473,0-4.344-0.766-5.612-2.297c-1.269-1.531-1.903-3.992-1.903-7.384v-28.158H157.2v29.175c0,6.28,1.756,11.093,5.267,14.44
		c3.512,3.347,8.538,5.021,15.08,5.021c6.694,0,11.819-1.723,15.375-5.168c3.555-3.446,5.333-8.308,5.333-14.587v-28.88h-12.963
		v28.091H185.291z M283.149,52.722L232.625,2.197C231.218,0.79,229.311,0,227.321,0H40.342c-4.143,0-7.5,3.358-7.5,7.5v303.188
		c0,4.142,3.357,7.5,7.5,7.5h237.504c4.143,0,7.5-3.358,7.5-7.5V58.025C285.346,56.036,284.556,54.129,283.149,52.722z
		 M234.821,25.606l24.918,24.919h-24.918L234.821,25.606L234.821,25.606z M47.842,15h171.979v10.263H47.842V15z M270.346,303.188
		H47.842V40.263h171.979v17.763c0,4.142,3.357,7.5,7.5,7.5h43.024v237.662H270.346z M208.329,233.392v47.979h18.673
		c5.645,0,10.103-1.252,13.373-3.758c3.271-2.505,4.906-5.934,4.906-10.288c0-2.932-0.668-5.316-2.002-7.154
		c-1.335-1.838-3.49-3.15-6.465-3.938v-0.328c2.253-0.547,4.069-1.772,5.447-3.676c1.379-1.903,2.068-4.201,2.068-6.892
		c0-4.091-1.581-7.105-4.742-9.041c-3.162-1.937-8.003-2.905-14.522-2.905L208.329,233.392L208.329,233.392z M225.854,271.362
		h-4.562v-10.075h4.299c2.057,0,3.626,0.427,4.709,1.28c1.083,0.854,1.625,2.079,1.625,3.676
		C231.925,269.655,229.9,271.362,225.854,271.362z M231.038,247.241c0,1.51-0.508,2.647-1.525,3.413
		c-1.018,0.766-2.456,1.148-4.315,1.148h-3.905v-8.598h3.643C229.004,243.204,231.038,244.55,231.038,247.241z M145.253,237.363
		c-3.041-2.647-7.592-3.971-13.651-3.971h-16.606v47.979h12.963v-15.917h3.644c5.819,0,10.31-1.46,13.472-4.381
		c3.161-2.92,4.742-7.061,4.742-12.421C149.815,243.773,148.294,240.01,145.253,237.363z M134.966,253.247
		c-1.149,1.094-2.697,1.641-4.645,1.641h-2.363v-11.026h3.348c3.588,0,5.383,1.619,5.383,4.857
		C136.688,250.643,136.114,252.153,134.966,253.247z M89.431,243.532c-5.885,0-10.414,1.68-13.586,5.038
		c-3.173,3.359-4.759,8.177-4.759,14.456c0,6.083,1.712,10.77,5.136,14.063s8.232,4.939,14.424,4.939
		c2.975,0,5.535-0.197,7.68-0.591c2.143-0.394,4.222-1.104,6.234-2.133v-9.222c-2.21,1.028-4.261,1.755-6.152,2.182
		c-1.893,0.427-3.967,0.64-6.22,0.64c-2.473,0-4.425-0.591-5.858-1.772s-2.193-2.811-2.28-4.89h22.939v-5.71
		c0-5.491-1.526-9.697-4.578-12.618S95.032,243.532,89.431,243.532z M84.312,258.169c0.175-2.035,0.771-3.528,1.789-4.479
		c1.017-0.952,2.28-1.428,3.79-1.428c1.641,0,2.948,0.537,3.921,1.608c0.974,1.072,1.482,2.505,1.527,4.299H84.312z"/>
</g>
<g>
</g>
<g>
</g>
<g>
</g>
<g>
</g>
<g>
</g>
<g>
</g>
<g>
</g>
<g>
</g>
<g>
</g>
<g>
</g>
<g>
</g>
<g>
</g>
<g>
</g>
<g>
</g>
<g>
</g>
</svg>
