<?xml version="1.0" encoding="iso-8859-1"?>
<!-- Generator: Adobe Illustrator 19.0.0, SVG Export Plug-In . SVG Version: 6.00 Build 0)  -->
<svg version="1.1" id="Layer_1" xmlns="http://www.w3.org/2000/svg" xmlns:xlink="http://www.w3.org/1999/xlink" x="0px" y="0px"
	 viewBox="0 0 318.188 318.188" style="enable-background:new 0 0 318.188 318.188;" xml:space="preserve">
<g>
	<polygon style="fill:#E4E4E4;" points="227.321,7.5 40.342,7.5 40.342,310.688 277.846,310.688 277.846,58.025 	"/>
	<polygon style="fill:#007934;" points="235.14,32.763 40.342,32.763 40.342,7.5 227.321,7.5 	"/>
	<g>
		<path style="fill:#007934;" d="M133.616,162.179L84.69,140.45v-8.323l48.925-24.487v14.373l-30.004,13.694l30.004,12.195
			L133.616,162.179L133.616,162.179z"/>
		<path style="fill:#007934;" d="M180.895,99.026l-26.374,72.734h-16.744l26.374-72.734
			C164.151,99.026,180.895,99.026,180.895,99.026z"/>
		<path style="fill:#007934;" d="M184.572,147.902l30.004-12.195l-30.004-13.694V107.64l48.925,24.487v8.323l-48.925,21.729V147.902
			z"/>
	</g>
	<polygon style="fill:#D1D3D3;" points="227.321,58.025 277.846,58.025 227.321,7.5 	"/>
	<path style="fill:#333E48;" d="M100.882,254.418H87.435v-15.879H75.804v42.832h11.631V263.91h13.447v17.461h11.631v-42.832h-11.631
		C100.882,238.539,100.882,254.418,100.882,254.418z M283.149,52.722L232.625,2.197C231.218,0.79,229.311,0,227.321,0H40.342
		c-4.142,0-7.5,3.358-7.5,7.5v303.188c0,4.142,3.358,7.5,7.5,7.5h237.504c4.142,0,7.5-3.358,7.5-7.5V58.025
		C285.346,56.036,284.556,54.129,283.149,52.722z M234.821,25.606l24.918,24.919h-24.918L234.821,25.606L234.821,25.606z M47.842,15
		h171.979v10.263H47.842V15z M270.346,303.188H47.842V40.263h171.979v17.763c0,4.142,3.358,7.5,7.5,7.5h43.024v237.662H270.346z
		 M226.8,238.539h-11.572v42.832h28.066v-9.346H226.8V238.539z M118.636,248.002h10.459v33.369h11.572v-33.369h10.43v-9.463h-32.461
		L118.636,248.002L118.636,248.002z M181.8,268.949h-0.234l-8.936-30.41h-15.41v42.832h10.254v-18.604
		c0-2.91-0.205-6.992-0.615-12.246h0.264l8.76,30.85h11.016l8.643-30.791h0.264c-0.234,4.648-0.366,7.569-0.396,8.76
		c-0.029,1.191-0.044,2.275-0.044,3.252v18.779h10.635v-42.832H190.56L181.8,268.949z"/>
</g>
<g>
</g>
<g>
</g>
<g>
</g>
<g>
</g>
<g>
</g>
<g>
</g>
<g>
</g>
<g>
</g>
<g>
</g>
<g>
</g>
<g>
</g>
<g>
</g>
<g>
</g>
<g>
</g>
<g>
</g>
</svg>
