<?xml version="1.0" encoding="iso-8859-1"?>
<!-- Generator: Adobe Illustrator 19.0.0, SVG Export Plug-In . SVG Version: 6.00 Build 0)  -->
<svg version="1.1" id="Layer_1" xmlns="http://www.w3.org/2000/svg" xmlns:xlink="http://www.w3.org/1999/xlink" x="0px" y="0px"
	 viewBox="0 0 318.188 318.188" style="enable-background:new 0 0 318.188 318.188;" xml:space="preserve">
<g>
	<polygon style="fill:#E8E8E8;" points="227.321,7.5 40.342,7.5 40.342,310.688 277.846,310.688 277.846,58.025 	"/>
	<g>
		<path style="fill:#004A94;" d="M214.341,167.967c0,10.853-8.88,19.732-19.732,19.732h-71.03c-10.853,0-19.732-8.88-19.732-19.732
			v-71.03c0-10.853,8.88-19.732,19.732-19.732h71.03c10.853,0,19.732,8.88,19.732,19.732V167.967z"/>
		<polygon style="fill:#FFFFFF;" points="175.526,113.027 175.526,102.573 142.659,102.573 142.659,113.027 153.866,113.027 
			153.866,151.875 142.659,151.875 142.659,162.329 175.526,162.329 175.526,151.875 164.319,151.875 164.319,113.027 		"/>
	</g>
	<polygon style="fill:#004A94;" points="235.14,32.763 40.342,32.763 40.342,7.5 227.321,7.5 	"/>
	<polygon style="fill:#D1D3D3;" points="227.321,58.025 277.846,58.025 227.321,7.5 	"/>
	<path style="fill:#333E48;" d="M191.887,232.637c-7.613,0-13.417,2.106-17.409,6.318c-3.993,4.211-5.989,10.31-5.989,18.295
		c0,8.073,2.007,14.222,6.021,18.443c4.015,4.223,9.785,6.334,17.312,6.334c7.636,0,13.434-2.1,17.394-6.301s5.94-10.338,5.94-18.41
		c0-8.096-1.97-14.232-5.907-18.411C205.31,234.727,199.522,232.637,191.887,232.637z M199.123,267.85
		c-1.586,2.254-4.02,3.381-7.302,3.381c-6.454,0-9.681-4.639-9.681-13.914c0-9.364,3.249-14.047,9.746-14.047
		c3.194,0,5.596,1.145,7.204,3.43c1.607,2.287,2.412,5.825,2.412,10.617C201.503,262.086,200.709,265.598,199.123,267.85z
		 M283.149,52.723L232.625,2.197C231.218,0.79,229.311,0,227.321,0H40.342c-4.143,0-7.5,3.358-7.5,7.5v303.188
		c0,4.143,3.357,7.5,7.5,7.5h237.504c4.143,0,7.5-3.357,7.5-7.5V58.025C285.346,56.036,284.556,54.129,283.149,52.723z
		 M234.821,25.606l24.918,24.919h-24.918L234.821,25.606L234.821,25.606z M47.842,15h171.979v10.263H47.842V15z M270.346,303.188
		H47.842V40.263h171.979v17.763c0,4.143,3.357,7.5,7.5,7.5h43.024v237.662H270.346z M148.011,243.336
		c2.034,0,3.938,0.284,5.71,0.854c1.772,0.568,3.544,1.269,5.316,2.1l3.971-10.206c-4.726-2.253-9.681-3.38-14.866-3.38
		c-4.748,0-8.877,1.012-12.389,3.035s-6.203,4.918-8.073,8.68c-1.87,3.764-2.806,8.129-2.806,13.095
		c0,7.942,1.931,14.013,5.793,18.214c3.86,4.201,9.412,6.301,16.654,6.301c5.054,0,9.583-0.886,13.586-2.658V268.41
		c-2.013,0.832-4.015,1.543-6.005,2.133c-1.991,0.591-4.048,0.887-6.17,0.887c-7.022,0-10.534-4.616-10.534-13.85
		c0-4.441,0.863-7.926,2.592-10.452S144.925,243.336,148.011,243.336z M103.247,281.371h13.029v-47.979h-13.029V281.371z"/>
</g>
<g>
</g>
<g>
</g>
<g>
</g>
<g>
</g>
<g>
</g>
<g>
</g>
<g>
</g>
<g>
</g>
<g>
</g>
<g>
</g>
<g>
</g>
<g>
</g>
<g>
</g>
<g>
</g>
<g>
</g>
</svg>
