<?xml version="1.0" encoding="iso-8859-1"?>
<!-- Generator: Adobe Illustrator 19.0.0, SVG Export Plug-In . SVG Version: 6.00 Build 0)  -->
<svg version="1.1" id="Layer_1" xmlns="http://www.w3.org/2000/svg" xmlns:xlink="http://www.w3.org/1999/xlink" x="0px" y="0px"
	 viewBox="0 0 318.188 318.188" style="enable-background:new 0 0 318.188 318.188;" xml:space="preserve">
<g>
	<polygon style="fill:#E8E8E8;" points="227.321,7.5 40.342,7.5 40.342,310.688 277.846,310.688 277.846,58.025 	"/>
	<g>
		<path style="fill:#A35EB5;" d="M110.644,179.585v-91.91h19.488v91.91H110.644z"/>
		<path style="fill:#A35EB5;" d="M213.323,141.39c0,12.339-3.512,21.79-10.535,28.352c-7.025,6.563-17.168,9.844-30.43,9.844
			h-21.225V104.63h23.532c12.235,0,21.738,3.23,28.506,9.69S213.323,129.803,213.323,141.39z M196.814,141.8
			c0-16.099-7.11-24.148-21.328-24.148h-8.46v48.809h6.819C189.157,166.46,196.814,158.241,196.814,141.8z"/>
	</g>
	<polygon style="fill:#A35EB5;" points="235.14,32.763 40.342,32.763 40.342,7.5 227.321,7.5 	"/>
	<polygon style="fill:#D1D3D3;" points="227.321,58.025 277.846,58.025 227.321,7.5 	"/>
	<path style="fill:#333E48;" d="M74.482,281.371H87.51v-47.979H74.482V281.371z M203.259,233.392v47.979h15.522
		c7.985,0,14.183-2.166,18.591-6.498s6.613-10.501,6.613-18.509c0-7.438-2.096-13.127-6.285-17.065
		c-4.189-3.938-10.135-5.907-17.836-5.907L203.259,233.392L203.259,233.392z M227.921,247.044c1.739,2.123,2.609,5.382,2.609,9.78
		c0,4.704-0.919,8.199-2.757,10.485c-1.838,2.287-4.726,3.43-8.664,3.43h-2.888v-26.877h3.773
		C223.54,243.861,226.182,244.922,227.921,247.044z M132.012,255.084c0,2.932,0.153,6.815,0.46,11.65h-0.197l-17.459-33.343H97.882
		v47.979h11.486v-21.627c0-2.8-0.209-6.859-0.624-12.175h0.296l17.523,33.802h17v-47.979h-11.552L132.012,255.084L132.012,255.084z
		 M283.149,52.722L232.625,2.197C231.218,0.79,229.311,0,227.321,0H40.342c-4.143,0-7.5,3.358-7.5,7.5v303.188
		c0,4.142,3.357,7.5,7.5,7.5h237.504c4.143,0,7.5-3.358,7.5-7.5V58.025C285.346,56.036,284.556,54.129,283.149,52.722z
		 M234.821,25.606l24.918,24.919h-24.918L234.821,25.606L234.821,25.606z M47.842,15h171.979v10.263H47.842V15z M270.346,303.188
		H47.842V40.263h171.979v17.763c0,4.142,3.357,7.5,7.5,7.5h43.024v237.662H270.346z M170.54,233.392h-16.605v47.979h15.522
		c7.985,0,14.183-2.166,18.591-6.498s6.613-10.501,6.613-18.509c0-7.438-2.096-13.127-6.285-17.065
		C184.187,235.361,178.241,233.392,170.54,233.392z M178.449,267.309c-1.838,2.287-4.726,3.43-8.664,3.43h-2.888v-26.877h3.773
		c3.545,0,6.187,1.061,7.926,3.183c1.739,2.123,2.609,5.382,2.609,9.78C181.206,261.528,180.287,265.023,178.449,267.309z"/>
</g>
<g>
</g>
<g>
</g>
<g>
</g>
<g>
</g>
<g>
</g>
<g>
</g>
<g>
</g>
<g>
</g>
<g>
</g>
<g>
</g>
<g>
</g>
<g>
</g>
<g>
</g>
<g>
</g>
<g>
</g>
</svg>
