<?xml version="1.0" encoding="iso-8859-1"?>
<!-- Generator: Adobe Illustrator 19.0.0, SVG Export Plug-In . SVG Version: 6.00 Build 0)  -->
<svg version="1.1" id="Layer_1" xmlns="http://www.w3.org/2000/svg" xmlns:xlink="http://www.w3.org/1999/xlink" x="0px" y="0px"
	 viewBox="0 0 318.188 318.188" style="enable-background:new 0 0 318.188 318.188;" xml:space="preserve">
<g>
	<polygon style="fill:#E8E8E8;" points="227.321,7.5 40.342,7.5 40.342,310.688 277.846,310.688 277.846,58.025 	"/>
	<polygon style="fill:#007934;" points="235.14,32.763 40.342,32.763 40.342,7.5 227.321,7.5 	"/>
	<g>
		<g>
			<path style="fill:#007934;" d="M105.762,201.885c-4.281,0-8.012-0.449-11.192-1.346V184.76c3.263,0.814,6.238,1.223,8.929,1.223
				c4.159,0,7.135-1.295,8.93-3.883c1.793-2.59,2.691-6.637,2.691-12.141V86.17h18.959v83.666c0,10.438-2.385,18.389-7.156,23.854
				C122.153,199.152,115.099,201.885,105.762,201.885z"/>
			<path style="fill:#007934;" d="M209.366,150.754c0,8.074-2.904,14.435-8.715,19.082c-5.811,4.648-13.894,6.973-24.25,6.973
				c-9.541,0-17.98-1.793-25.32-5.382v-17.614c6.034,2.691,11.141,4.587,15.32,5.688c4.18,1.102,8.002,1.652,11.469,1.652
				c4.158,0,7.348-0.796,9.57-2.386c2.223-1.591,3.334-3.954,3.334-7.095c0-1.752-0.489-3.313-1.469-4.679
				c-0.979-1.366-2.415-2.681-4.311-3.944c-1.896-1.264-5.76-3.281-11.59-6.055c-5.465-2.569-9.563-5.035-12.293-7.4
				c-2.732-2.365-4.914-5.117-6.545-8.257s-2.446-6.81-2.446-11.009c0-7.91,2.681-14.128,8.042-18.654
				c5.361-4.525,12.772-6.788,22.232-6.788c4.648,0,9.082,0.55,13.303,1.651c4.219,1.101,8.633,2.65,13.24,4.648l-6.115,14.738
				c-4.771-1.957-8.716-3.322-11.835-4.098c-3.119-0.773-6.188-1.162-9.204-1.162c-3.589,0-6.341,0.837-8.257,2.508
				c-1.917,1.673-2.874,3.854-2.874,6.545c0,1.672,0.387,3.129,1.162,4.373c0.773,1.244,2.007,2.445,3.699,3.607
				c1.691,1.162,5.697,3.252,12.018,6.27c8.358,3.996,14.088,8.002,17.187,12.018C207.817,140.001,209.366,144.924,209.366,150.754z
				"/>
		</g>
	</g>
	<polygon style="fill:#D1D3D3;" points="227.321,58.025 277.846,58.025 227.321,7.5 	"/>
	<path style="fill:#333E48;" d="M168.078,243.959c0.766-0.591,1.99-0.887,3.676-0.887c3.26,0,7.132,1.029,11.617,3.086l3.971-10.01
		c-5.163-2.297-10.229-3.445-15.194-3.445c-5.623,0-10.042,1.236-13.259,3.708c-3.216,2.473-4.823,5.919-4.823,10.337
		c0,2.363,0.377,4.409,1.132,6.137c0.755,1.729,1.914,3.261,3.479,4.596c1.564,1.334,3.91,2.713,7.039,4.135
		c3.457,1.553,5.584,2.582,6.384,3.084c0.798,0.504,1.378,1.002,1.739,1.494c0.36,0.492,0.541,1.066,0.541,1.723
		c0,1.05-0.448,1.908-1.346,2.576s-2.309,1.001-4.233,1.001c-2.231,0-4.682-0.355-7.351-1.067c-2.67-0.71-5.24-1.7-7.713-2.969
		v11.551c2.341,1.116,4.595,1.898,6.761,2.347s4.846,0.673,8.04,0.673c3.829,0,7.165-0.64,10.01-1.92
		c2.844-1.279,5.021-3.073,6.53-5.382c1.51-2.308,2.265-4.95,2.265-7.925c0-3.238-0.804-5.924-2.412-8.058
		c-1.607-2.133-4.479-4.13-8.614-5.989c-4.311-1.969-6.952-3.325-7.926-4.069c-0.974-0.743-1.46-1.586-1.46-2.526
		C166.93,245.283,167.312,244.55,168.078,243.959z M283.149,52.723L232.625,2.197C231.218,0.79,229.311,0,227.321,0H40.342
		c-4.142,0-7.5,3.358-7.5,7.5v303.188c0,4.143,3.358,7.5,7.5,7.5h237.504c4.143,0,7.5-3.357,7.5-7.5V58.025
		C285.346,56.036,284.556,54.129,283.149,52.723z M234.821,25.606l24.918,24.919h-24.918L234.821,25.606L234.821,25.606z M47.842,15
		h171.979v10.263H47.842V15z M270.346,303.188H47.842V40.263h171.979v17.763c0,4.143,3.357,7.5,7.5,7.5h43.024v237.662H270.346z
		 M132.569,277.794c0,3.129-0.459,5.338-1.378,6.63c-0.919,1.29-2.451,1.936-4.594,1.936c-0.919,0-1.772-0.082-2.56-0.246
		s-1.531-0.313-2.231-0.443v10.075c2.123,0.46,4.365,0.689,6.728,0.689c5.688,0,9.955-1.669,12.799-5.005s4.266-8.254,4.266-14.752
		v-43.286h-13.028v44.402H132.569z"/>
</g>
<g>
</g>
<g>
</g>
<g>
</g>
<g>
</g>
<g>
</g>
<g>
</g>
<g>
</g>
<g>
</g>
<g>
</g>
<g>
</g>
<g>
</g>
<g>
</g>
<g>
</g>
<g>
</g>
<g>
</g>
</svg>
