<?xml version="1.0" encoding="iso-8859-1"?>
<!-- Generator: Adobe Illustrator 19.0.0, SVG Export Plug-In . SVG Version: 6.00 Build 0)  -->
<svg version="1.1" id="Layer_1" xmlns="http://www.w3.org/2000/svg" xmlns:xlink="http://www.w3.org/1999/xlink" x="0px" y="0px"
	 viewBox="0 0 318.188 318.188" style="enable-background:new 0 0 318.188 318.188;" xml:space="preserve">
<g>
	<polygon style="fill:#E8E8E8;" points="227.321,7.5 40.342,7.5 40.342,310.688 277.846,310.688 277.846,58.025 	"/>
	<polygon style="fill:#004A94;" points="235.14,32.763 40.342,32.763 40.342,7.5 227.321,7.5 	"/>
	<polygon style="fill:#D1D3D3;" points="227.321,58.025 277.846,58.025 227.321,7.5 	"/>
	<g>
		<circle style="fill:#004A94;" cx="157.804" cy="129.643" r="59.401"/>
		<path style="fill:#FFFFFF;" d="M138.403,98.676v47.938c-1.681-0.198-3.551-0.154-5.529,0.195
			c-7.212,1.271-13.057,5.968-13.057,10.49s5.845,7.157,13.057,5.886c7.211-1.271,13.056-5.968,13.056-10.49v-38.703l32.749-5.775
			v31.295c-1.68-0.199-3.549-0.153-5.529,0.196c-7.213,1.271-13.057,5.968-13.057,10.49s5.844,7.157,13.057,5.886
			c7.21-1.271,13.056-5.968,13.056-10.49V90.248L138.403,98.676z"/>
	</g>
	<path style="fill:#333E48;" d="M113.453,267.457h-0.263l-10.009-34.065H85.919v47.979h11.486v-20.84
		c0-3.259-0.23-7.832-0.689-13.717h0.295l9.813,34.557h12.339l9.681-34.491h0.295c-0.262,5.207-0.41,8.478-0.443,9.813
		s-0.049,2.549-0.049,3.643v21.036h11.913v-47.979h-17.295L113.453,267.457z M283.149,52.723L232.625,2.197
		C231.218,0.79,229.311,0,227.321,0H40.342c-4.142,0-7.5,3.358-7.5,7.5v303.188c0,4.143,3.358,7.5,7.5,7.5h237.504
		c4.142,0,7.5-3.357,7.5-7.5V58.025C285.346,56.036,284.556,54.129,283.149,52.723z M234.821,25.606l24.918,24.919h-24.918
		L234.821,25.606L234.821,25.606z M47.842,15h171.979v10.263H47.842V15z M270.346,303.188H47.842V40.263h171.979v17.763
		c0,4.143,3.358,7.5,7.5,7.5h43.024v237.662H270.346z M170.326,256.299v-0.197c3.435-0.963,6.06-2.511,7.876-4.644
		c1.815-2.134,2.724-4.688,2.724-7.663c0-3.457-1.411-6.17-4.233-8.139s-6.717-2.953-11.683-2.953c-3.436,0-6.481,0.371-9.14,1.115
		s-5.257,1.991-7.794,3.741l5.382,8.664c3.281-2.056,6.453-3.085,9.517-3.085c1.642,0,2.948,0.307,3.922,0.919
		s1.461,1.554,1.461,2.822c0,3.37-3.293,5.054-9.879,5.054h-3.019v9.747h2.953c2.429,0,4.397,0.181,5.907,0.542
		c1.51,0.36,2.604,0.896,3.282,1.607s1.017,1.723,1.017,3.035c0,1.707-0.65,2.959-1.952,3.758s-3.375,1.198-6.219,1.198
		c-1.838,0-3.846-0.257-6.022-0.771c-2.177-0.514-4.315-1.308-6.416-2.379v10.765c2.561,0.984,4.939,1.662,7.138,2.034
		s4.589,0.558,7.171,0.558c6.279,0,11.186-1.279,14.719-3.84c3.533-2.56,5.3-6.07,5.3-10.534
		C182.337,261.09,178.334,257.305,170.326,256.299z M218.108,261.484c0,3.457-0.597,5.945-1.789,7.465
		c-1.192,1.521-3.112,2.281-5.759,2.281c-2.473,0-4.344-0.766-5.612-2.297s-1.903-3.992-1.903-7.385v-28.157h-13.028v29.175
		c0,6.279,1.756,11.093,5.267,14.439c3.512,3.348,8.538,5.021,15.08,5.021c6.694,0,11.819-1.723,15.375-5.168
		c3.555-3.447,5.333-8.309,5.333-14.588v-28.88h-12.963L218.108,261.484L218.108,261.484z"/>
</g>
<g>
</g>
<g>
</g>
<g>
</g>
<g>
</g>
<g>
</g>
<g>
</g>
<g>
</g>
<g>
</g>
<g>
</g>
<g>
</g>
<g>
</g>
<g>
</g>
<g>
</g>
<g>
</g>
<g>
</g>
</svg>
