<?xml version="1.0" encoding="iso-8859-1"?>
<!-- Generator: Adobe Illustrator 19.0.0, SVG Export Plug-In . SVG Version: 6.00 Build 0)  -->
<svg version="1.1" id="Layer_1" xmlns="http://www.w3.org/2000/svg" xmlns:xlink="http://www.w3.org/1999/xlink" x="0px" y="0px"
	 viewBox="0 0 318.188 318.188" style="enable-background:new 0 0 318.188 318.188;" xml:space="preserve">
<g>
	<polygon style="fill:#E8E8E8;" points="227.321,7.5 40.342,7.5 40.342,310.688 277.846,310.688 277.846,58.025 	"/>
	<g>
		<path style="fill:#333E48;" d="M198.786,104.985h-48.632c-9.581,0-17.421,7.841-17.421,17.422v20.321
			c0,9.58,7.84,17.42,17.421,17.42h3.629c6.533,0,33.389,5.082,33.389-11.976c0-17.053-38.275-0.397-38.306-18.51
			c1.106-7.259,8.506-10.159,15.805-10.159h19.598c9.581,0,17.42,7.84,17.42,17.42v21.047c0,9.582-7.839,17.421-17.42,17.421
			h-48.438c-9.581,0-17.42-7.839-17.42-17.421v-49.84c0-9.583,7.839-17.421,17.42-17.421h55.696c9.582,0,17.42-3.266,17.42-7.258
			s-7.839-7.26-17.42-7.26h-70.212c-9.582,0-17.42,7.838-17.42,17.422v78.875c0,9.582,7.839,17.421,17.42,17.421h77.471
			c9.582,0,17.42-7.839,17.42-17.421v-50.081C216.206,112.826,208.367,104.985,198.786,104.985z"/>
		<polygon style="fill:#E8E8E8;" points="168.222,155.25 171.715,147.944 180.925,151.598 		"/>
		<polygon style="fill:#333E48;" points="170.279,133.315 166.785,126.011 157.577,129.663 		"/>
	</g>
	<polygon style="fill:#333E48;" points="235.14,32.763 40.342,32.763 40.342,7.5 227.321,7.5 	"/>
	<polygon style="fill:#D1D3D3;" points="227.321,58.025 277.846,58.025 227.321,7.5 	"/>
	<path style="fill:#333E48;" d="M157.79,233.195l-15.654,48.176h14.244l2.428-8.992h15.588l2.363,8.992h14.178l-15.852-48.176
		H157.79z M161.499,261.746c1.99-7.525,3.275-12.568,3.855-15.129c0.58-2.56,0.969-4.397,1.166-5.514
		c0.217,1.204,0.672,3.195,1.361,5.973c0.689,2.779,1.273,5.043,1.756,6.794l2.066,7.876H161.499z M283.149,52.723L232.625,2.197
		C231.218,0.79,229.311,0,227.321,0H40.342c-4.142,0-7.5,3.358-7.5,7.5v303.188c0,4.143,3.358,7.5,7.5,7.5h237.504
		c4.142,0,7.5-3.357,7.5-7.5V58.025C285.346,56.036,284.556,54.129,283.149,52.723z M234.821,25.606l24.918,24.919h-24.918
		L234.821,25.606L234.821,25.606z M47.842,15h171.979v10.263H47.842V15z M270.346,303.188H47.842V40.263h171.979v17.763
		c0,4.143,3.358,7.5,7.5,7.5h43.024v237.662H270.346z M223.393,233.392l-8.336,14.834l-8.664-14.834h-14.374l14.965,23.433
		l-15.917,24.547h14.67l9.255-14.998l9.353,14.998h14.998l-16.344-23.53l15.194-24.449h-14.8V233.392z M109.876,267.457h-0.263
		l-10.009-34.065H82.342v47.979h11.486v-20.84c0-3.259-0.23-7.832-0.689-13.717h0.295l9.813,34.557h12.339l9.681-34.491h0.295
		c-0.262,5.207-0.41,8.478-0.443,9.813s-0.049,2.549-0.049,3.643v21.036h11.913v-47.979h-17.295L109.876,267.457z"/>
</g>
<g>
</g>
<g>
</g>
<g>
</g>
<g>
</g>
<g>
</g>
<g>
</g>
<g>
</g>
<g>
</g>
<g>
</g>
<g>
</g>
<g>
</g>
<g>
</g>
<g>
</g>
<g>
</g>
<g>
</g>
</svg>
