<?xml version="1.0" encoding="iso-8859-1"?>
<!-- Generator: Adobe Illustrator 19.0.0, SVG Export Plug-In . SVG Version: 6.00 Build 0)  -->
<svg version="1.1" id="Layer_1" xmlns="http://www.w3.org/2000/svg" xmlns:xlink="http://www.w3.org/1999/xlink" x="0px" y="0px"
	 viewBox="0 0 318.188 318.188" style="enable-background:new 0 0 318.188 318.188;" xml:space="preserve">
<g>
	<polygon style="fill:#E4E4E4;" points="227.321,7.5 40.342,7.5 40.342,310.688 277.846,310.688 277.846,58.025 	"/>
	<polygon style="fill:#FB9200;" points="235.14,32.763 40.342,32.763 40.342,7.5 227.321,7.5 	"/>
	<polygon style="fill:#D1D3D3;" points="227.321,58.025 277.846,58.025 227.321,7.5 	"/>
	<g>
		<polygon style="fill:#FB9200;" points="202.247,168.969 115.941,168.969 151.864,78.983 166.323,78.983 		"/>
		<rect x="103.816" y="166.037" style="fill:#FF671B;" width="110.556" height="12.899"/>
		<path style="fill:#FFFFFF;" d="M187.734,132.615h-57.28l-7.023,17.591h71.326L187.734,132.615z M173.222,96.264h-28.256
			l-7.021,17.59h42.301L173.222,96.264z"/>
	</g>
	<path style="fill:#333E48;" d="M214.921,249.514c-0.339,1.27-0.73,3.015-1.174,5.236c-0.445,2.222-0.741,4.073-0.889,5.555
		c-0.127-2.053-0.847-5.691-2.158-10.918l-6.316-23.519h-27.548l-9.744,14.219c-1.926,2.708-3.205,4.687-3.84,5.935v-20.153h-12.601
		v46.401h12.601v-15.52l3.713-2.223l9.172,17.742h14.156l-14.378-25.613l14.458-20.541l15.058,46.154h14.759l15.202-46.401h-14.027
		L214.921,249.514z M283.149,52.723L232.625,2.197C231.218,0.79,229.311,0,227.321,0H40.342c-4.142,0-7.5,3.358-7.5,7.5v303.188
		c0,4.143,3.358,7.5,7.5,7.5h237.504c4.143,0,7.5-3.357,7.5-7.5V58.025C285.346,56.036,284.556,54.129,283.149,52.723z
		 M234.821,25.606l24.918,24.919h-24.918L234.821,25.606L234.821,25.606z M47.842,15h171.979v10.263H47.842V15z M270.346,303.188
		H47.842V40.263h171.979v17.763c0,4.143,3.357,7.5,7.5,7.5h43.024v237.662H270.346z M114.438,258.813h-0.254l-9.68-32.944H87.81
		v46.401h11.108v-20.154c0-3.152-0.223-7.574-0.666-13.266h0.285l9.49,33.42h11.934l9.362-33.357h0.286
		c-0.254,5.037-0.397,8.199-0.429,9.49s-0.048,2.465-0.048,3.523v20.344h11.521v-46.401h-16.727L114.438,258.813z"/>
</g>
<g>
</g>
<g>
</g>
<g>
</g>
<g>
</g>
<g>
</g>
<g>
</g>
<g>
</g>
<g>
</g>
<g>
</g>
<g>
</g>
<g>
</g>
<g>
</g>
<g>
</g>
<g>
</g>
<g>
</g>
</svg>
