<?xml version="1.0" encoding="iso-8859-1"?>
<!-- Generator: Adobe Illustrator 19.0.0, SVG Export Plug-In . SVG Version: 6.00 Build 0)  -->
<svg version="1.1" id="Layer_1" xmlns="http://www.w3.org/2000/svg" xmlns:xlink="http://www.w3.org/1999/xlink" x="0px" y="0px"
	 viewBox="0 0 318.188 318.188" style="enable-background:new 0 0 318.188 318.188;" xml:space="preserve">
<g>
	<polygon style="fill:#E8E8E8;" points="227.321,7.5 40.342,7.5 40.342,310.688 277.846,310.688 277.846,58.025 	"/>
	<g>
		<circle style="fill:#333E48;" cx="157.853" cy="129.643" r="59.45"/>
		<circle style="fill:#38A3FF;" cx="157.853" cy="129.643" r="34.387"/>
		<path style="fill:#333E48;" d="M157.853,129.643c-5.247,5.247-5.247,13.752,0,18.999l40.451,40.451h18.999v-18.999l-40.452-40.451
			C171.605,124.397,163.1,124.397,157.853,129.643z"/>
	</g>
	<polygon style="fill:#333E48;" points="235.14,32.763 40.342,32.763 40.342,7.5 227.321,7.5 	"/>
	<polygon style="fill:#D1D3D3;" points="227.321,58.025 277.846,58.025 227.321,7.5 	"/>
	<path style="fill:#333E48;" d="M283.149,52.722L232.625,2.197C231.218,0.79,229.311,0,227.321,0H40.342c-4.143,0-7.5,3.358-7.5,7.5
		v303.188c0,4.142,3.357,7.5,7.5,7.5h237.504c4.143,0,7.5-3.358,7.5-7.5V58.025C285.346,56.036,284.556,54.129,283.149,52.722z
		 M234.821,25.606l24.918,24.919h-24.918L234.821,25.606L234.821,25.606z M47.842,15h171.979v10.263H47.842V15z M270.346,303.188
		H47.842V40.263h171.979v17.763c0,4.142,3.357,7.5,7.5,7.5h43.024v237.662H270.346z M108.481,267.457h-0.263L98.21,233.392H80.947
		v47.979h11.486v-20.839c0-3.259-0.229-7.832-0.689-13.718h0.296l9.813,34.557h12.339l9.681-34.491h0.296
		c-0.263,5.207-0.41,8.478-0.442,9.813c-0.033,1.334-0.05,2.549-0.05,3.643v21.036h11.913v-47.979h-17.295L108.481,267.457z
		 M219.766,257.841c-0.351,1.313-0.755,3.118-1.215,5.415c-0.459,2.297-0.766,4.212-0.919,5.743
		c-0.131-2.122-0.875-5.885-2.231-11.29l-6.53-24.318H194.3l15.654,47.979h15.26l15.72-47.979h-14.506L219.766,257.841z
		 M167.553,232.637c-7.613,0-13.417,2.106-17.409,6.317c-3.993,4.212-5.989,10.31-5.989,18.295c0,8.073,2.007,14.222,6.021,18.444
		c4.015,4.223,9.785,6.333,17.312,6.333c7.636,0,13.434-2.1,17.394-6.301s5.94-10.337,5.94-18.411c0-8.095-1.97-14.231-5.907-18.411
		C180.976,234.727,175.188,232.637,167.553,232.637z M174.789,267.85c-1.586,2.254-4.02,3.38-7.302,3.38
		c-6.454,0-9.681-4.638-9.681-13.915c0-9.364,3.249-14.046,9.746-14.046c3.194,0,5.596,1.144,7.204,3.429
		c1.607,2.287,2.412,5.825,2.412,10.617C177.169,262.085,176.375,265.597,174.789,267.85z"/>
</g>
<g>
</g>
<g>
</g>
<g>
</g>
<g>
</g>
<g>
</g>
<g>
</g>
<g>
</g>
<g>
</g>
<g>
</g>
<g>
</g>
<g>
</g>
<g>
</g>
<g>
</g>
<g>
</g>
<g>
</g>
</svg>
