<?xml version="1.0" encoding="iso-8859-1"?>
<!-- Generator: Adobe Illustrator 19.0.0, SVG Export Plug-In . SVG Version: 6.00 Build 0)  -->
<svg version="1.1" id="Layer_1" xmlns="http://www.w3.org/2000/svg" xmlns:xlink="http://www.w3.org/1999/xlink" x="0px" y="0px"
	 viewBox="0 0 318.188 318.188" style="enable-background:new 0 0 318.188 318.188;" xml:space="preserve">
<g>
	<polygon style="fill:#E8E8E8;" points="227.321,7.5 40.342,7.5 40.342,310.688 277.846,310.688 277.846,58.025 	"/>
	<polygon style="fill:#38A3FF;" points="235.14,32.763 40.342,32.763 40.342,7.5 227.321,7.5 	"/>
	<polygon style="fill:#D1D3D3;" points="227.321,58.025 277.846,58.025 227.321,7.5 	"/>
	<g>
		<circle style="fill:#38A3FF;" cx="157.804" cy="129.643" r="59.401"/>
		<path style="fill:#333E48;" d="M138.403,98.676v47.938c-1.681-0.199-3.551-0.154-5.529,0.195
			c-7.212,1.271-13.057,5.968-13.057,10.49s5.845,7.157,13.057,5.886c7.211-1.271,13.056-5.968,13.056-10.49v-38.703l32.749-5.775
			v31.294c-1.68-0.199-3.549-0.153-5.529,0.196c-7.213,1.271-13.057,5.968-13.057,10.49s5.844,7.157,13.057,5.886
			c7.21-1.271,13.056-5.968,13.056-10.49V90.248L138.403,98.676z"/>
	</g>
	<path style="fill:#333E48;" d="M283.149,52.722L232.625,2.197C231.218,0.79,229.311,0,227.321,0H40.342c-4.143,0-7.5,3.358-7.5,7.5
		v303.188c0,4.142,3.357,7.5,7.5,7.5h237.504c4.143,0,7.5-3.358,7.5-7.5V58.025C285.346,56.036,284.556,54.129,283.149,52.722z
		 M234.821,25.606l24.918,24.919h-24.918L234.821,25.606L234.821,25.606z M47.842,15h171.979v10.263H47.842V15z M270.346,303.188
		H47.842V40.263h171.979v17.763c0,4.142,3.357,7.5,7.5,7.5h43.024v237.662H270.346z M224.868,251.458
		c1.815-2.133,2.724-4.688,2.724-7.663c0-3.457-1.411-6.169-4.233-8.139s-6.717-2.954-11.683-2.954c-3.436,0-6.481,0.372-9.14,1.116
		c-2.658,0.744-5.257,1.991-7.794,3.741l5.382,8.664c3.281-2.056,6.453-3.085,9.517-3.085c1.642,0,2.948,0.307,3.922,0.919
		c0.974,0.613,1.461,1.554,1.461,2.822c0,3.37-3.293,5.054-9.879,5.054h-3.019v9.747h2.953c2.429,0,4.397,0.18,5.907,0.542
		c1.51,0.361,2.604,0.897,3.282,1.608s1.017,1.723,1.017,3.036c0,1.707-0.65,2.959-1.952,3.758s-3.375,1.198-6.219,1.198
		c-1.838,0-3.846-0.257-6.022-0.771c-2.177-0.514-4.315-1.307-6.416-2.379v10.764c2.561,0.984,4.939,1.663,7.138,2.035
		s4.589,0.558,7.171,0.558c6.279,0,11.186-1.28,14.719-3.839c3.533-2.56,5.3-6.071,5.3-10.535c0-6.563-4.003-10.348-12.011-11.355
		v-0.197C220.427,255.139,223.052,253.591,224.868,251.458z M117.653,267.457h-0.262l-10.01-34.065H90.12v47.979h11.486v-20.839
		c0-3.259-0.23-7.832-0.689-13.718h0.295l9.813,34.557h12.34l9.681-34.491h0.296c-0.263,5.207-0.41,8.478-0.443,9.813
		s-0.049,2.549-0.049,3.643v21.036h11.912v-47.979h-17.295L117.653,267.457z M185.356,237.363
		c-3.042-2.647-7.593-3.971-13.652-3.971h-16.605v47.979h12.963v-15.917h3.643c5.819,0,10.31-1.46,13.472-4.381
		c3.161-2.92,4.742-7.061,4.742-12.421C189.918,243.773,188.396,240.01,185.356,237.363z M175.067,253.247
		c-1.148,1.094-2.696,1.641-4.644,1.641h-2.362v-11.026h3.347c3.588,0,5.383,1.619,5.383,4.857
		C176.791,250.643,176.217,252.153,175.067,253.247z"/>
</g>
<g>
</g>
<g>
</g>
<g>
</g>
<g>
</g>
<g>
</g>
<g>
</g>
<g>
</g>
<g>
</g>
<g>
</g>
<g>
</g>
<g>
</g>
<g>
</g>
<g>
</g>
<g>
</g>
<g>
</g>
</svg>
