<?xml version="1.0" encoding="iso-8859-1"?>
<!-- Generator: Adobe Illustrator 19.0.0, SVG Export Plug-In . SVG Version: 6.00 Build 0)  -->
<svg version="1.1" id="Layer_1" xmlns="http://www.w3.org/2000/svg" xmlns:xlink="http://www.w3.org/1999/xlink" x="0px" y="0px"
	 viewBox="0 0 318.188 318.188" style="enable-background:new 0 0 318.188 318.188;" xml:space="preserve">
<g>
	<polygon style="fill:#E8E8E8;" points="227.321,7.5 40.342,7.5 40.342,310.688 277.846,310.688 277.846,58.025 	"/>
	<g>
		<rect x="98.402" y="69.204" style="fill:#38A3FF;" width="119.89" height="119.89"/>
		<circle style="fill:#FFFFFF;" cx="158.347" cy="129.148" r="45.484"/>
		<path style="fill:#38A3FF;" d="M151.939,150.605c-4.146,2.682-7.537,0.837-7.537-4.1v-34.711c0-4.938,3.392-6.783,7.537-4.102
			l25.622,16.579c4.146,2.683,4.146,7.073,0,9.754L151.939,150.605z"/>
	</g>
	<polygon style="fill:#38A3FF;" points="235.14,32.763 40.342,32.763 40.342,7.5 227.321,7.5 	"/>
	<polygon style="fill:#D1D3D3;" points="227.321,58.025 277.846,58.025 227.321,7.5 	"/>
	<path style="fill:#333E48;" d="M117.654,267.457h-0.263l-10.009-34.065H90.12v47.979h11.486v-20.839
		c0-3.259-0.23-7.832-0.689-13.718h0.295l9.813,34.557h12.339l9.681-34.491h0.295c-0.262,5.207-0.41,8.478-0.443,9.813
		s-0.049,2.549-0.049,3.643v21.036h11.913v-47.979h-17.295L117.654,267.457z M283.149,52.722L232.625,2.197
		C231.218,0.79,229.311,0,227.321,0H40.342c-4.142,0-7.5,3.358-7.5,7.5v303.188c0,4.142,3.358,7.5,7.5,7.5h237.504
		c4.142,0,7.5-3.358,7.5-7.5V58.025C285.346,56.036,284.556,54.129,283.149,52.722z M234.821,25.606l24.918,24.919h-24.918
		L234.821,25.606L234.821,25.606z M47.842,15h171.979v10.263H47.842V15z M270.346,303.188H47.842V40.263h171.979v17.763
		c0,4.142,3.358,7.5,7.5,7.5h43.024v237.662H270.346z M185.356,237.363c-3.042-2.647-7.593-3.971-13.652-3.971h-16.605v47.979
		h12.963v-15.917h3.643c5.819,0,10.31-1.46,13.472-4.381c3.161-2.92,4.742-7.061,4.742-12.421
		C189.918,243.773,188.396,240.01,185.356,237.363z M175.067,253.247c-1.148,1.094-2.696,1.641-4.644,1.641h-2.362v-11.026h3.347
		c3.588,0,5.383,1.619,5.383,4.857C176.791,250.643,176.217,252.153,175.067,253.247z M225.459,233.392H213.48l-19.953,29.175v9.517
		h19.133v9.288h12.799v-9.288h5.283v-9.681h-5.283L225.459,233.392L225.459,233.392z M212.775,252.574
		c-0.077,1.783-0.115,3.2-0.115,4.25v5.579h-7.909l5.316-7.909c0.94-1.466,1.783-3.041,2.527-4.726h0.36
		C212.911,249.855,212.852,250.791,212.775,252.574z"/>
</g>
<g>
</g>
<g>
</g>
<g>
</g>
<g>
</g>
<g>
</g>
<g>
</g>
<g>
</g>
<g>
</g>
<g>
</g>
<g>
</g>
<g>
</g>
<g>
</g>
<g>
</g>
<g>
</g>
<g>
</g>
</svg>
