<?xml version="1.0" encoding="iso-8859-1"?>
<!-- Generator: Adobe Illustrator 19.0.0, SVG Export Plug-In . SVG Version: 6.00 Build 0)  -->
<svg version="1.1" id="Layer_1" xmlns="http://www.w3.org/2000/svg" xmlns:xlink="http://www.w3.org/1999/xlink" x="0px" y="0px"
	 viewBox="0 0 318.188 318.188" style="enable-background:new 0 0 318.188 318.188;" xml:space="preserve">
<g>
	<polygon style="fill:#E8E8E8;" points="227.321,7.5 40.342,7.5 40.342,310.688 277.846,310.688 277.846,58.025 	"/>
	<g>
		<rect x="113.592" y="77.053" style="fill:#333E48;" width="89.511" height="108.707"/>
		<rect x="118.954" y="134.087" style="fill:#38A3FF;" width="78.788" height="46.313"/>
		<rect x="118.954" y="82.414" style="fill:#38A3FF;" width="78.788" height="46.312"/>
		<g>
			<rect x="99.703" y="77.053" style="fill:#A4A9AD;" width="13.89" height="108.707"/>
			<rect x="102.936" y="175.372" style="fill:#FFFFFF;" width="7.873" height="5.778"/>
			<rect x="102.936" y="161.985" style="fill:#FFFFFF;" width="7.873" height="5.777"/>
			<rect x="102.936" y="148.598" style="fill:#FFFFFF;" width="7.873" height="5.778"/>
			<rect x="102.936" y="135.211" style="fill:#FFFFFF;" width="7.873" height="5.778"/>
			<rect x="102.936" y="121.823" style="fill:#FFFFFF;" width="7.873" height="5.778"/>
			<rect x="102.936" y="108.436" style="fill:#FFFFFF;" width="7.873" height="5.778"/>
			<rect x="102.936" y="95.049" style="fill:#FFFFFF;" width="7.873" height="5.777"/>
			<rect x="102.936" y="81.661" style="fill:#FFFFFF;" width="7.873" height="5.778"/>
		</g>
		<g>
			<rect x="203.104" y="77.053" style="fill:#A4A9AD;" width="13.889" height="108.707"/>
			<rect x="205.887" y="175.372" style="fill:#FFFFFF;" width="7.873" height="5.778"/>
			<rect x="205.887" y="161.985" style="fill:#FFFFFF;" width="7.873" height="5.777"/>
			<rect x="205.887" y="148.598" style="fill:#FFFFFF;" width="7.873" height="5.778"/>
			<rect x="205.887" y="135.211" style="fill:#FFFFFF;" width="7.873" height="5.778"/>
			<rect x="205.887" y="121.823" style="fill:#FFFFFF;" width="7.873" height="5.778"/>
			<rect x="205.887" y="108.436" style="fill:#FFFFFF;" width="7.873" height="5.778"/>
			<rect x="205.887" y="95.049" style="fill:#FFFFFF;" width="7.873" height="5.777"/>
			<rect x="205.887" y="81.661" style="fill:#FFFFFF;" width="7.873" height="5.778"/>
		</g>
	</g>
	<polygon style="fill:#333E48;" points="235.14,32.763 40.342,32.763 40.342,7.5 227.321,7.5 	"/>
	<polygon style="fill:#D1D3D3;" points="227.321,58.025 277.846,58.025 227.321,7.5 	"/>
	<path style="fill:#333E48;" d="M100.926,268.949h-0.234l-8.936-30.41h-15.41v42.832H86.6v-18.604c0-2.91-0.205-6.992-0.615-12.246
		h0.264l8.76,30.85h11.016l8.643-30.791h0.264c-0.234,4.648-0.366,7.568-0.396,8.76s-0.044,2.275-0.044,3.252v18.779h10.635v-42.832
		h-15.439L100.926,268.949z M209.529,243.695c-3.945,3.848-5.918,9.229-5.918,16.143c0,7.09,1.802,12.549,5.405,16.377
		s8.706,5.742,15.308,5.742c6.016,0,11.533-0.859,16.553-2.578v-23.086h-18.486v8.936h7.646v6.709
		c-1.445,0.332-3.027,0.498-4.746,0.498c-3.145,0-5.552-1.05-7.222-3.149s-2.505-5.151-2.505-9.155c0-4.082,0.923-7.222,2.769-9.419
		s4.458-3.296,7.837-3.296c3.691,0,7.08,0.762,10.166,2.285l3.662-9.082c-1.777-0.781-3.862-1.426-6.255-1.934
		s-4.937-0.762-7.632-0.762C219.002,237.924,213.475,239.848,209.529,243.695z M161.365,242.084
		c-2.715-2.363-6.777-3.545-12.188-3.545h-14.824v42.832h11.572v-14.209h3.252c5.195,0,9.204-1.304,12.026-3.911
		s4.233-6.304,4.233-11.089C165.438,247.807,164.08,244.447,161.365,242.084z M152.181,256.264
		c-1.025,0.977-2.407,1.465-4.146,1.465h-2.109v-9.844h2.988c3.203,0,4.805,1.445,4.805,4.336
		C153.719,253.939,153.206,255.287,152.181,256.264z M283.149,52.723L232.625,2.197C231.218,0.79,229.311,0,227.321,0H40.342
		c-4.142,0-7.5,3.358-7.5,7.5v303.188c0,4.143,3.358,7.5,7.5,7.5h237.504c4.142,0,7.5-3.357,7.5-7.5V58.025
		C285.346,56.036,284.556,54.129,283.149,52.723z M234.821,25.606l24.918,24.919h-24.918L234.821,25.606L234.821,25.606z M47.842,15
		h171.979v10.263H47.842V15z M270.346,303.188H47.842V40.263h171.979v17.763c0,4.143,3.358,7.5,7.5,7.5h43.024v237.662H270.346z
		 M172.264,281.371h25.43v-9.434h-13.857v-8.086h12.832v-9.287h-12.832v-6.738h13.857v-9.287h-25.43V281.371z"/>
</g>
<g>
</g>
<g>
</g>
<g>
</g>
<g>
</g>
<g>
</g>
<g>
</g>
<g>
</g>
<g>
</g>
<g>
</g>
<g>
</g>
<g>
</g>
<g>
</g>
<g>
</g>
<g>
</g>
<g>
</g>
</svg>
