<?xml version="1.0" encoding="iso-8859-1"?>
<!-- Generator: Adobe Illustrator 19.0.0, SVG Export Plug-In . SVG Version: 6.00 Build 0)  -->
<svg version="1.1" id="Layer_1" xmlns="http://www.w3.org/2000/svg" xmlns:xlink="http://www.w3.org/1999/xlink" x="0px" y="0px"
	 viewBox="0 0 318.188 318.188" style="enable-background:new 0 0 318.188 318.188;" xml:space="preserve">
<g>
	<polygon style="fill:#E8E8E8;" points="227.321,7.5 40.342,7.5 40.342,310.688 277.846,310.688 277.846,58.025 	"/>
	<g>
		<path style="fill:#A4A9AD;" d="M127.099,187.222c-0.521,0-1.031-0.203-1.414-0.586l-23.507-23.506
			c-0.375-0.375-0.586-0.884-0.586-1.414V75.905c0-0.809,0.487-1.538,1.234-1.848c0.748-0.31,1.607-0.139,2.18,0.434l23.507,23.506
			c0.375,0.375,0.586,0.884,0.586,1.414v85.811c0,0.809-0.487,1.538-1.234,1.848C127.616,187.172,127.356,187.222,127.099,187.222z
			 M105.592,160.887l19.507,19.507V100.24l-19.507-19.507C105.592,80.733,105.592,160.887,105.592,160.887z"/>
		<path style="fill:#A4A9AD;" d="M212.909,101.412h-85.811c-0.53,0-1.039-0.211-1.414-0.586L102.177,77.32
			c-0.572-0.572-0.743-1.432-0.434-2.179c0.31-0.748,1.039-1.235,1.848-1.235h85.811c0.53,0,1.039,0.211,1.414,0.586l23.507,23.506
			c0.572,0.572,0.743,1.432,0.434,2.179C214.447,100.924,213.718,101.412,212.909,101.412z M127.927,97.412h80.154l-19.507-19.506
			H108.42L127.927,97.412z"/>
		<path style="fill:#A4A9AD;" d="M212.909,187.222h-85.811c-1.104,0-2-0.896-2-2v-85.81c0-1.104,0.896-2,2-2h85.811
			c1.104,0,2,0.896,2,2v85.811C214.909,186.327,214.014,187.222,212.909,187.222z M129.099,183.222h81.811v-81.811h-81.811V183.222z
			"/>
	</g>
	<polygon style="fill:#004A94;" points="235.14,32.763 40.342,32.763 40.342,7.5 227.321,7.5 	"/>
	<polygon style="fill:#D1D3D3;" points="227.321,58.025 277.846,58.025 227.321,7.5 	"/>
	<path style="fill:#333E48;" d="M201.388,277.794c0,3.129-0.459,5.338-1.378,6.629s-2.45,1.936-4.595,1.936
		c-0.919,0-1.771-0.082-2.56-0.246c-0.787-0.164-1.531-0.312-2.231-0.443v10.075c2.122,0.459,4.364,0.689,6.728,0.689
		c5.688,0,9.954-1.669,12.799-5.005c2.844-3.336,4.267-8.253,4.267-14.751v-43.287h-13.029L201.388,277.794L201.388,277.794z
		 M283.149,52.722L232.625,2.197C231.218,0.79,229.311,0,227.321,0H40.342c-4.143,0-7.5,3.358-7.5,7.5v303.188
		c0,4.142,3.357,7.5,7.5,7.5h237.504c4.143,0,7.5-3.358,7.5-7.5V58.025C285.346,56.036,284.556,54.129,283.149,52.722z
		 M234.821,25.606l24.918,24.919h-24.918L234.821,25.606L234.821,25.606z M47.842,15h171.979v10.263H47.842V15z M270.346,303.188
		H47.842V40.263h171.979v17.763c0,4.142,3.357,7.5,7.5,7.5h43.024v237.662H270.346z M123.905,232.637
		c-7.613,0-13.417,2.106-17.409,6.317c-3.993,4.212-5.989,10.31-5.989,18.295c0,8.073,2.007,14.222,6.021,18.444
		c4.016,4.223,9.785,6.333,17.312,6.333c7.636,0,13.434-2.1,17.394-6.301c3.959-4.201,5.94-10.337,5.94-18.411
		c0-8.095-1.97-14.231-5.907-18.411C137.328,234.727,131.541,232.637,123.905,232.637z M131.142,267.85
		c-1.586,2.254-4.02,3.38-7.302,3.38c-6.454,0-9.681-4.638-9.681-13.915c0-9.364,3.248-14.046,9.746-14.046
		c3.194,0,5.596,1.144,7.204,3.429c1.608,2.287,2.412,5.825,2.412,10.617C133.521,262.085,132.728,265.597,131.142,267.85z
		 M190.788,260.171c-1.335-1.838-3.49-3.15-6.465-3.938v-0.328c2.253-0.547,4.069-1.772,5.447-3.676
		c1.379-1.903,2.068-4.201,2.068-6.892c0-4.091-1.581-7.105-4.742-9.041c-3.162-1.937-8.003-2.905-14.522-2.905h-16.736v47.979
		h18.673c5.645,0,10.103-1.252,13.373-3.758c3.271-2.505,4.906-5.934,4.906-10.288C192.79,264.394,192.122,262.009,190.788,260.171z
		 M168.801,243.204h3.643c4.069,0,6.104,1.346,6.104,4.037c0,1.51-0.508,2.647-1.525,3.413c-1.018,0.766-2.456,1.148-4.315,1.148
		h-3.905v-8.598H168.801z M173.362,271.362H168.8v-10.075h4.299c2.057,0,3.626,0.427,4.709,1.28
		c1.083,0.854,1.625,2.079,1.625,3.676C179.434,269.655,177.409,271.362,173.362,271.362z"/>
</g>
<g>
</g>
<g>
</g>
<g>
</g>
<g>
</g>
<g>
</g>
<g>
</g>
<g>
</g>
<g>
</g>
<g>
</g>
<g>
</g>
<g>
</g>
<g>
</g>
<g>
</g>
<g>
</g>
<g>
</g>
</svg>
