<?xml version="1.0" encoding="iso-8859-1"?>
<!-- Generator: Adobe Illustrator 19.0.0, SVG Export Plug-In . SVG Version: 6.00 Build 0)  -->
<svg version="1.1" id="Layer_1" xmlns="http://www.w3.org/2000/svg" xmlns:xlink="http://www.w3.org/1999/xlink" x="0px" y="0px"
	 viewBox="0 0 318.188 318.188" style="enable-background:new 0 0 318.188 318.188;" xml:space="preserve">
<g>
	<polygon style="fill:#E8E8E8;" points="227.321,7.5 40.342,7.5 40.342,310.688 277.846,310.688 277.846,58.025 	"/>
	<g>
		<rect x="98.402" y="69.204" style="fill:#FF671B;" width="119.89" height="119.89"/>
		<rect x="108.803" y="79.605" style="fill:#FFFFFF;" width="99.089" height="99.087"/>
		<g>
			<rect x="123.116" y="99.682" style="fill:#FF671B;" width="70.463" height="58.933"/>
			<rect x="128.417" y="105.803" style="fill:#FFFFFF;" width="59.861" height="7.613"/>
			<path style="fill:#FFFFFF;" d="M143.372,119.972c-8.259,0-14.955,6.696-14.955,14.954c0,8.259,6.695,14.955,14.955,14.955
				c8.258,0,14.954-6.696,14.954-14.955h-14.954V119.972z"/>
			<rect x="165.402" y="121.064" style="fill:#FFFFFF;" width="22.876" height="4.434"/>
			<rect x="165.402" y="130.493" style="fill:#FFFFFF;" width="22.876" height="4.433"/>
			<rect x="165.402" y="139.922" style="fill:#FFFFFF;" width="22.876" height="4.432"/>
		</g>
	</g>
	<polygon style="fill:#FF671B;" points="235.14,32.763 40.342,32.763 40.342,7.5 227.321,7.5 	"/>
	<polygon style="fill:#D1D3D3;" points="227.321,58.025 277.846,58.025 227.321,7.5 	"/>
	<path style="fill:#333E48;" d="M283.149,52.722L232.625,2.197C231.218,0.79,229.311,0,227.321,0H40.342c-4.142,0-7.5,3.358-7.5,7.5
		v303.188c0,4.142,3.358,7.5,7.5,7.5h237.504c4.142,0,7.5-3.358,7.5-7.5V58.025C285.346,56.036,284.556,54.129,283.149,52.722z
		 M234.821,25.606l24.918,24.919h-24.918L234.821,25.606L234.821,25.606z M47.842,15h171.979v10.263H47.842V15z M270.346,303.188
		H47.842V40.263h171.979v17.763c0,4.142,3.358,7.5,7.5,7.5h43.024v237.662H270.346z M131.47,237.363
		c-3.041-2.647-7.592-3.971-13.652-3.971h-16.606v47.979h12.963v-15.917h3.643c5.819,0,10.31-1.46,13.472-4.381
		c3.161-2.92,4.742-7.061,4.742-12.421C136.032,243.773,134.511,240.01,131.47,237.363z M121.182,253.247
		c-1.149,1.094-2.697,1.641-4.644,1.641h-2.363v-11.026h3.348c3.588,0,5.382,1.619,5.382,4.857
		C122.905,250.643,122.331,252.153,121.182,253.247z M173.937,237.363c-3.042-2.647-7.593-3.971-13.652-3.971h-16.606v47.979h12.963
		v-15.917h3.643c5.819,0,10.31-1.46,13.472-4.381c3.161-2.92,4.742-7.061,4.742-12.421
		C178.498,243.773,176.977,240.01,173.937,237.363z M163.647,253.247c-1.148,1.094-2.696,1.641-4.644,1.641h-2.362v-11.026h3.347
		c3.588,0,5.383,1.619,5.383,4.857C165.371,250.643,164.797,252.153,163.647,253.247z M182.633,243.992h11.716v37.379h12.963
		v-37.379h11.683v-10.6h-36.361v10.6H182.633z"/>
</g>
<g>
</g>
<g>
</g>
<g>
</g>
<g>
</g>
<g>
</g>
<g>
</g>
<g>
</g>
<g>
</g>
<g>
</g>
<g>
</g>
<g>
</g>
<g>
</g>
<g>
</g>
<g>
</g>
<g>
</g>
</svg>
