<?xml version="1.0" encoding="iso-8859-1"?>
<!-- Generator: Adobe Illustrator 19.0.0, SVG Export Plug-In . SVG Version: 6.00 Build 0)  -->
<svg version="1.1" id="Layer_1" xmlns="http://www.w3.org/2000/svg" xmlns:xlink="http://www.w3.org/1999/xlink" x="0px" y="0px"
	 viewBox="0 0 318.188 318.188" style="enable-background:new 0 0 318.188 318.188;" xml:space="preserve">
<g>
	<polygon style="fill:#E8E8E8;" points="227.321,7.5 40.342,7.5 40.342,310.688 277.846,310.688 277.846,58.025 	"/>
	<polygon style="fill:#A35EB5;" points="235.14,32.763 40.342,32.763 40.342,7.5 227.321,7.5 	"/>
	<g>
		<g>
			<path style="fill:#A35EB5;" d="M164.5,116.342c0,9.893-3.091,17.457-9.272,22.695c-6.183,5.239-14.973,7.857-26.373,7.857h-8.361
				v32.691h-19.488v-91.91h29.359c11.147,0,19.623,2.399,25.429,7.197C161.597,99.673,164.5,106.829,164.5,116.342z
				 M120.493,130.928h6.413c5.993,0,10.478-1.184,13.453-3.553c2.976-2.367,4.464-5.814,4.464-10.342
				c0-4.566-1.248-7.941-3.74-10.121c-2.494-2.178-6.403-3.269-11.725-3.269h-8.865
				C120.493,103.643,120.493,130.928,120.493,130.928z"/>
			<path style="fill:#A35EB5;" d="M219.571,107.98c2.598,0,4.756,0.189,6.475,0.566l-1.446,17.98
				c-1.551-0.419-3.437-0.629-5.657-0.629c-6.12,0-10.887,1.571-14.303,4.715c-3.416,3.143-5.123,7.543-5.123,13.201v35.771h-19.174
				v-70.285h14.521l2.829,11.819h0.942c2.18-3.938,5.124-7.114,8.833-9.524C211.178,109.187,215.212,107.98,219.571,107.98z"/>
		</g>
	</g>
	<polygon style="fill:#D1D3D3;" points="227.321,58.025 277.846,58.025 227.321,7.5 	"/>
	<path style="fill:#333E48;" d="M222.719,277.794c0,3.129-0.459,5.338-1.378,6.63c-0.919,1.29-2.45,1.936-4.595,1.936
		c-0.919,0-1.771-0.082-2.56-0.246c-0.787-0.164-1.531-0.313-2.231-0.443v10.075c2.122,0.46,4.364,0.689,6.728,0.689
		c5.688,0,9.954-1.669,12.799-5.005c2.844-3.336,4.267-8.254,4.267-14.752v-43.286H222.72L222.719,277.794L222.719,277.794z
		 M283.149,52.723L232.625,2.197C231.218,0.79,229.311,0,227.321,0H40.342c-4.143,0-7.5,3.358-7.5,7.5v303.188
		c0,4.143,3.357,7.5,7.5,7.5h237.504c4.143,0,7.5-3.357,7.5-7.5V58.025C285.346,56.036,284.556,54.129,283.149,52.723z
		 M234.821,25.606l24.918,24.919h-24.918L234.821,25.606L234.821,25.606z M47.842,15h171.979v10.263H47.842V15z M270.346,303.188
		H47.842V40.263h171.979v17.763c0,4.143,3.357,7.5,7.5,7.5h43.024v237.662H270.346z M158.692,247.568
		c0-9.451-6.52-14.177-19.56-14.177h-15.72v47.979h12.963v-17.459h3.281l10.174,17.459h14.703l-13.98-20.904
		C155.979,257.426,158.692,253.127,158.692,247.568z M138.805,254.166h-2.429v-10.962h2.561c4.44,0,6.661,1.652,6.661,4.956
		C145.598,252.164,143.333,254.166,138.805,254.166z M111.205,237.363c-3.041-2.647-7.592-3.972-13.651-3.972H80.947v47.979H93.91
		v-15.916h3.644c5.818,0,10.309-1.461,13.471-4.382s4.742-7.061,4.742-12.421C115.767,243.773,114.246,240.01,111.205,237.363z
		 M100.917,253.246c-1.148,1.095-2.697,1.641-4.645,1.641H93.91v-11.025h3.348c3.588,0,5.382,1.619,5.382,4.856
		C102.64,250.643,102.065,252.152,100.917,253.246z M207.886,238.905c-3.938-4.179-9.726-6.269-17.361-6.269
		c-7.613,0-13.417,2.106-17.409,6.318c-3.993,4.211-5.989,10.31-5.989,18.295c0,8.073,2.007,14.222,6.021,18.443
		c4.015,4.223,9.785,6.334,17.312,6.334c7.636,0,13.434-2.1,17.394-6.301s5.94-10.338,5.94-18.41
		C213.793,249.221,211.823,243.084,207.886,238.905z M197.761,267.85c-1.586,2.254-4.02,3.381-7.302,3.381
		c-6.454,0-9.681-4.639-9.681-13.914c0-9.364,3.249-14.047,9.746-14.047c3.194,0,5.596,1.145,7.204,3.43
		c1.607,2.287,2.412,5.825,2.412,10.617C200.141,262.086,199.347,265.598,197.761,267.85z"/>
</g>
<g>
</g>
<g>
</g>
<g>
</g>
<g>
</g>
<g>
</g>
<g>
</g>
<g>
</g>
<g>
</g>
<g>
</g>
<g>
</g>
<g>
</g>
<g>
</g>
<g>
</g>
<g>
</g>
<g>
</g>
</svg>
