<?xml version="1.0" encoding="iso-8859-1"?>
<!-- Generator: Adobe Illustrator 19.0.0, SVG Export Plug-In . SVG Version: 6.00 Build 0)  -->
<svg version="1.1" id="Layer_1" xmlns="http://www.w3.org/2000/svg" xmlns:xlink="http://www.w3.org/1999/xlink" x="0px" y="0px"
	 viewBox="0 0 318.188 318.188" style="enable-background:new 0 0 318.188 318.188;" xml:space="preserve">
<g>
	<polygon style="fill:#E8E8E8;" points="227.321,7.5 40.342,7.5 40.342,310.688 277.846,310.688 277.846,58.025 	"/>
	<polygon style="fill:#38A3FF;" points="235.139,32.763 40.342,32.763 40.342,7.5 227.321,7.5 	"/>
	<g>
		<g>
			<path style="fill:#38A3FF;" d="M161.734,116.342c0,9.892-3.091,17.456-9.273,22.695c-6.182,5.239-14.973,7.858-26.372,7.858
				h-8.361v32.69H98.239v-91.91h29.358c11.148,0,19.624,2.4,25.429,7.198C158.831,99.673,161.734,106.829,161.734,116.342z
				 M117.728,130.927h6.413c5.993,0,10.477-1.184,13.453-3.552c2.975-2.368,4.463-5.815,4.463-10.342
				c0-4.567-1.248-7.941-3.74-10.121c-2.494-2.179-6.403-3.269-11.725-3.269h-8.864
				C117.728,103.643,117.728,130.927,117.728,130.927z"/>
			<path style="fill:#38A3FF;" d="M226.611,158.714c0,7.209-2.504,12.699-7.512,16.471c-5.009,3.772-12.5,5.658-22.475,5.658
				c-5.114,0-9.472-0.346-13.076-1.037c-3.605-0.692-6.978-1.708-10.122-3.049v-15.842c3.562,1.677,7.576,3.081,12.039,4.212
				c4.463,1.131,8.393,1.697,11.787,1.697c6.957,0,10.436-2.011,10.436-6.035c0-1.509-0.462-2.735-1.383-3.678
				c-0.922-0.943-2.515-2.012-4.778-3.206s-5.281-2.587-9.053-4.181c-5.406-2.263-9.377-4.358-11.913-6.287
				c-2.536-1.927-4.38-4.138-5.532-6.632c-1.153-2.493-1.729-5.563-1.729-9.21c0-6.244,2.42-11.074,7.261-14.49
				s11.703-5.124,20.589-5.124c8.465,0,16.701,1.845,24.706,5.532l-5.784,13.831c-3.521-1.509-6.811-2.744-9.87-3.709
				c-3.06-0.963-6.183-1.446-9.367-1.446c-5.658,0-8.487,1.53-8.487,4.589c0,1.719,0.912,3.206,2.735,4.463
				s5.815,3.123,11.976,5.595c5.49,2.222,9.514,4.297,12.07,6.224c2.556,1.928,4.442,4.149,5.658,6.664
				C226.003,152.239,226.611,155.236,226.611,158.714z"/>
		</g>
	</g>
	<polygon style="fill:#D1D3D3;" points="227.321,58.025 277.846,58.025 227.321,7.5 	"/>
	<path style="fill:#333E48;" d="M283.149,52.722L232.625,2.197C231.218,0.79,229.311,0,227.321,0H40.342c-4.142,0-7.5,3.358-7.5,7.5
		v303.188c0,4.142,3.358,7.5,7.5,7.5h237.504c4.142,0,7.5-3.358,7.5-7.5V58.025C285.346,56.036,284.556,54.129,283.149,52.722z
		 M234.821,25.606l24.918,24.919h-24.918L234.821,25.606L234.821,25.606z M47.842,15h171.979v10.263H47.842V15z M270.346,303.188
		H47.842V40.263h171.979v17.763c0,4.142,3.358,7.5,7.5,7.5h43.024v237.662H270.346z M196.104,233.392h-16.605v47.979h15.522
		c7.985,0,14.183-2.166,18.591-6.498s6.613-10.501,6.613-18.509c0-7.438-2.096-13.127-6.285-17.065
		C209.751,235.361,203.806,233.392,196.104,233.392z M204.014,267.309c-1.838,2.287-4.726,3.43-8.664,3.43h-2.888v-26.877h3.773
		c3.545,0,6.187,1.061,7.926,3.183c1.739,2.123,2.609,5.382,2.609,9.78C206.771,261.528,205.852,265.023,204.014,267.309z
		 M152.817,243.959c0.766-0.591,1.99-0.886,3.676-0.886c3.26,0,7.133,1.029,11.617,3.085l3.971-10.009
		c-5.162-2.297-10.229-3.446-15.193-3.446c-5.623,0-10.043,1.236-13.259,3.708c-3.216,2.473-4.824,5.918-4.824,10.337
		c0,2.363,0.377,4.409,1.132,6.137c0.755,1.729,1.914,3.26,3.479,4.595c1.564,1.334,3.911,2.713,7.039,4.135
		c3.457,1.554,5.584,2.582,6.385,3.085c0.797,0.503,1.377,1.001,1.738,1.493s0.541,1.067,0.541,1.723
		c0,1.05-0.447,1.909-1.346,2.576c-0.896,0.667-2.309,1.001-4.232,1.001c-2.232,0-4.682-0.355-7.352-1.067
		c-2.669-0.71-5.24-1.701-7.712-2.97v11.552c2.341,1.116,4.594,1.898,6.76,2.346c2.167,0.448,4.846,0.673,8.04,0.673
		c3.83,0,7.166-0.64,10.01-1.92s5.021-3.073,6.531-5.382c1.51-2.308,2.264-4.95,2.264-7.925c0-3.238-0.803-5.924-2.412-8.057
		c-1.607-2.133-4.479-4.129-8.613-5.989c-4.311-1.969-6.953-3.326-7.926-4.07c-0.975-0.743-1.461-1.586-1.461-2.527
		C151.669,245.283,152.052,244.55,152.817,243.959z M128.5,237.363c-3.041-2.647-7.592-3.971-13.652-3.971H98.242v47.979h12.963
		v-15.917h3.643c5.819,0,10.31-1.46,13.472-4.381c3.161-2.92,4.742-7.061,4.742-12.421
		C133.062,243.773,131.541,240.01,128.5,237.363z M118.212,253.247c-1.149,1.094-2.697,1.641-4.644,1.641h-2.363v-11.027h3.348
		c3.588,0,5.382,1.619,5.382,4.857C119.935,250.643,119.36,252.153,118.212,253.247z"/>
</g>
<g>
</g>
<g>
</g>
<g>
</g>
<g>
</g>
<g>
</g>
<g>
</g>
<g>
</g>
<g>
</g>
<g>
</g>
<g>
</g>
<g>
</g>
<g>
</g>
<g>
</g>
<g>
</g>
<g>
</g>
</svg>
