<?xml version="1.0" encoding="iso-8859-1"?>
<!-- Generator: Adobe Illustrator 19.0.0, SVG Export Plug-In . SVG Version: 6.00 Build 0)  -->
<svg version="1.1" id="Layer_1" xmlns="http://www.w3.org/2000/svg" xmlns:xlink="http://www.w3.org/1999/xlink" x="0px" y="0px"
	 viewBox="0 0 318.188 318.188" style="enable-background:new 0 0 318.188 318.188;" xml:space="preserve">
<g>
	<polygon style="fill:#E8E8E8;" points="227.321,7.5 40.342,7.5 40.342,310.688 277.846,310.688 277.846,58.025 	"/>
	<path style="fill:#004A94;" d="M160.766,76.212c-0.557-0.016-1.111-0.042-1.672-0.042c-18.323,0-34.553,8.928-44.602,22.664
		l16.607,28.765L160.766,76.212z M207.598,104.963c-8.539-15.629-24.41-26.676-42.99-28.519l-16.465,28.519H207.598z
		 M112.343,102.001c-5.368,8.517-8.486,18.594-8.486,29.405c0,7.928,1.683,15.459,4.69,22.273h33.632L112.343,102.001z
		 M209.312,108.407h-33.043l29.933,51.848c5.153-8.397,8.129-18.274,8.129-28.849C214.331,123.195,212.525,115.411,209.312,108.407z
		 M110.21,157.123c8.418,15.968,24.418,27.316,43.217,29.231l16.877-29.231H110.21z M157.265,186.596
		c0.608,0.021,1.215,0.047,1.829,0.047c18.555,0,34.96-9.158,44.977-23.191l-16.722-28.964L157.265,186.596z"/>
	<polygon style="fill:#004A94;" points="235.14,32.763 40.342,32.763 40.342,7.5 227.321,7.5 	"/>
	<polygon style="fill:#D1D3D3;" points="227.321,58.025 277.846,58.025 227.321,7.5 	"/>
	<path style="fill:#333E48;" d="M221.57,257.513c-1.269,5.995-2.046,10.206-2.33,12.635c-0.24-1.882-0.722-4.726-1.443-8.532
		s-1.434-7.166-2.133-10.075l-4.103-18.148H199.55l-4.233,18.148c-0.635,2.517-1.318,5.688-2.051,9.517s-1.242,6.859-1.526,9.091
		c-0.438-3.15-1.247-7.384-2.428-12.7l-5.219-24.056H171.59l11.88,47.979h15.325c2.801-12.58,4.393-19.756,4.775-21.528
		s0.771-3.714,1.165-5.825s0.678-3.877,0.854-5.3c0.218,1.751,0.563,3.927,1.033,6.53s0.815,4.344,1.034,5.219l4.595,20.904h15.325
		l11.814-47.979h-12.503L221.57,257.513z M283.149,52.723L232.625,2.197C231.218,0.79,229.311,0,227.321,0H40.342
		c-4.142,0-7.5,3.358-7.5,7.5v303.188c0,4.143,3.358,7.5,7.5,7.5h237.504c4.142,0,7.5-3.357,7.5-7.5V58.025
		C285.346,56.036,284.556,54.129,283.149,52.723z M234.821,25.606l24.918,24.919h-24.918L234.821,25.606L234.821,25.606z M47.842,15
		h171.979v10.263H47.842V15z M270.346,303.188H47.842V40.263h171.979v17.763c0,4.143,3.358,7.5,7.5,7.5h43.024v237.662H270.346z
		 M137.426,233.195l-15.386,47.351l-13.428-20.079c5.426-3.041,8.139-7.34,8.139-12.898c0-9.451-6.52-14.177-19.559-14.177h-15.72
		v47.979h12.963v-17.459h3.282l10.174,17.459h28.125l2.429-8.992h15.588l2.362,8.992h14.178l-15.851-48.176L137.426,233.195
		L137.426,233.195z M96.864,254.166h-2.429v-10.962h2.56c4.441,0,6.662,1.652,6.662,4.956
		C103.657,252.164,101.393,254.166,96.864,254.166z M141.135,261.746c1.991-7.525,3.276-12.568,3.856-15.129
		c0.58-2.56,0.968-4.397,1.165-5.514c0.219,1.204,0.673,3.195,1.362,5.973c0.689,2.779,1.274,5.043,1.756,6.794l2.067,7.876H141.135
		z"/>
</g>
<g>
</g>
<g>
</g>
<g>
</g>
<g>
</g>
<g>
</g>
<g>
</g>
<g>
</g>
<g>
</g>
<g>
</g>
<g>
</g>
<g>
</g>
<g>
</g>
<g>
</g>
<g>
</g>
<g>
</g>
</svg>
