<?xml version="1.0" encoding="iso-8859-1"?>
<!-- Generator: Adobe Illustrator 19.0.0, SVG Export Plug-In . SVG Version: 6.00 Build 0)  -->
<svg version="1.1" id="Layer_1" xmlns="http://www.w3.org/2000/svg" xmlns:xlink="http://www.w3.org/1999/xlink" x="0px" y="0px"
	 viewBox="0 0 318.188 318.188" style="enable-background:new 0 0 318.188 318.188;" xml:space="preserve">
<g>
	<polygon style="fill:#E8E8E8;" points="227.321,7.5 40.342,7.5 40.342,310.688 277.846,310.688 277.846,58.025 	"/>
	<polygon style="fill:#FB9200;" points="235.139,32.763 40.342,32.763 40.342,7.5 227.321,7.5 	"/>
	<g>
		<path style="fill:#FB9200;" d="M124.245,149c0,5.475-1.902,9.644-5.705,12.508c-3.804,2.864-9.493,4.297-17.067,4.297
			c-3.883,0-7.193-0.263-9.93-0.788s-5.299-1.296-7.686-2.315v-12.03c2.705,1.273,5.752,2.34,9.142,3.199
			c3.39,0.858,6.373,1.288,8.951,1.288c5.283,0,7.924-1.527,7.924-4.582c0-1.146-0.351-2.077-1.05-2.793
			c-0.701-0.717-1.91-1.528-3.628-2.435c-1.719-0.907-4.01-1.965-6.875-3.175c-4.105-1.719-7.121-3.31-9.046-4.774
			c-1.926-1.463-3.326-3.143-4.201-5.036c-0.875-1.894-1.313-4.225-1.313-6.994c0-4.741,1.838-8.409,5.514-11.003
			s8.887-3.892,15.634-3.892c6.429,0,12.682,1.401,18.762,4.201l-4.392,10.503c-2.673-1.146-5.172-2.084-7.495-2.816
			c-2.323-0.732-4.695-1.099-7.113-1.099c-4.297,0-6.445,1.162-6.445,3.485c0,1.306,0.692,2.435,2.077,3.39
			c1.384,0.954,4.416,2.371,9.094,4.248c4.169,1.688,7.224,3.263,9.166,4.727c1.941,1.464,3.373,3.15,4.297,5.061
			C123.783,144.083,124.245,146.359,124.245,149z"/>
		<path style="fill:#FB9200;" d="M148.305,164.85l-20.337-53.372h15.229l10.312,30.41c1.146,3.851,1.862,7.494,2.148,10.932h0.287
			c0.159-3.056,0.875-6.699,2.148-10.932l10.264-30.41h15.229l-20.337,53.372H148.305z"/>
		<path style="fill:#FB9200;" d="M237.672,111.478v7.399l-8.354,2.148c1.527,2.387,2.292,5.061,2.292,8.021
			c0,5.729-1.998,10.191-5.991,13.391c-3.995,3.198-9.541,4.798-16.637,4.798l-2.625-0.144l-2.148-0.238
			c-1.496,1.146-2.244,2.419-2.244,3.818c0,2.101,2.673,3.151,8.02,3.151h9.07c5.855,0,10.319,1.257,13.391,3.771
			c3.071,2.514,4.606,6.206,4.606,11.075c0,6.237-2.602,11.075-7.805,14.513c-5.204,3.437-12.675,5.155-22.413,5.155
			c-7.447,0-13.137-1.297-17.067-3.891c-3.931-2.594-5.896-6.229-5.896-10.908c0-3.215,1.002-5.904,3.007-8.068
			c2.005-2.163,4.948-3.707,8.832-4.63c-1.496-0.637-2.801-1.679-3.915-3.127s-1.671-2.984-1.671-4.607
			c0-2.036,0.589-3.73,1.767-5.084c1.177-1.353,2.88-2.681,5.108-3.986c-2.801-1.209-5.021-3.15-6.66-5.824
			c-1.639-2.673-2.458-5.824-2.458-9.452c0-5.824,1.893-10.327,5.681-13.51c3.787-3.183,9.197-4.774,16.231-4.774
			c1.496,0,3.27,0.136,5.323,0.406c2.053,0.271,3.365,0.47,3.938,0.597H237.672z M196.474,172.393c0,2.005,0.962,3.58,2.888,4.726
			c1.925,1.146,4.622,1.719,8.092,1.719c5.219,0,9.309-0.716,12.269-2.148c2.96-1.432,4.44-3.389,4.44-5.871
			c0-2.006-0.876-3.39-2.626-4.153c-1.75-0.765-4.456-1.146-8.115-1.146h-7.543c-2.673,0-4.91,0.629-6.707,1.886
			C197.372,168.66,196.474,170.323,196.474,172.393z M201.772,128.95c0,2.896,0.66,5.188,1.981,6.874
			c1.32,1.688,3.333,2.53,6.039,2.53c2.737,0,4.742-0.843,6.015-2.53c1.272-1.687,1.91-3.978,1.91-6.874
			c0-6.429-2.642-9.644-7.925-9.644C204.446,119.307,201.772,122.521,201.772,128.95z"/>
	</g>
	<polygon style="fill:#D1D3D3;" points="227.321,58.025 277.846,58.025 227.321,7.5 	"/>
	<path style="fill:#333E48;" d="M108.055,243.959c0.766-0.591,1.991-0.887,3.675-0.887c3.26,0,7.132,1.029,11.618,3.086l3.971-10.01
		c-5.164-2.297-10.228-3.445-15.194-3.445c-5.623,0-10.042,1.236-13.258,3.708c-3.216,2.473-4.824,5.919-4.824,10.337
		c0,2.363,0.377,4.409,1.132,6.137c0.755,1.729,1.914,3.261,3.479,4.596c1.564,1.334,3.911,2.713,7.04,4.135
		c3.457,1.553,5.584,2.582,6.383,3.084c0.798,0.504,1.378,1.002,1.739,1.494c0.361,0.492,0.542,1.066,0.542,1.723
		c0,1.05-0.449,1.908-1.345,2.576c-0.897,0.668-2.309,1.001-4.234,1.001c-2.231,0-4.682-0.355-7.351-1.067
		c-2.669-0.71-5.24-1.7-7.712-2.969v11.551c2.341,1.116,4.594,1.898,6.76,2.347s4.846,0.673,8.041,0.673
		c3.828,0,7.165-0.64,10.009-1.92c2.844-1.279,5.021-3.073,6.531-5.382c1.51-2.308,2.264-4.95,2.264-7.925
		c0-3.238-0.804-5.924-2.412-8.058c-1.608-2.133-4.479-4.13-8.614-5.989c-4.311-1.969-6.952-3.325-7.926-4.069
		c-0.974-0.743-1.46-1.586-1.46-2.526C106.906,245.283,107.289,244.55,108.055,243.959z M155.017,257.841
		c-0.35,1.313-0.754,3.118-1.215,5.415c-0.459,2.297-0.766,4.212-0.918,5.743c-0.131-2.122-0.875-5.886-2.232-11.29l-6.53-24.317
		H129.55l15.654,47.979h15.26l15.721-47.979h-14.506L155.017,257.841z M200.633,263.289h8.565v7.515
		c-1.619,0.372-3.392,0.558-5.316,0.558c-3.523,0-6.219-1.176-8.09-3.527c-1.87-2.352-2.806-5.771-2.806-10.256
		c0-4.572,1.033-8.09,3.102-10.551c2.067-2.461,4.993-3.691,8.778-3.691c4.135,0,7.931,0.854,11.388,2.56l4.103-10.174
		c-1.991-0.874-4.327-1.597-7.007-2.166c-2.681-0.568-5.53-0.853-8.549-0.853c-7.964,0-14.156,2.154-18.575,6.465
		s-6.629,10.338-6.629,18.082c0,7.941,2.019,14.058,6.055,18.346c4.037,4.287,9.752,6.432,17.147,6.432
		c6.738,0,12.919-0.963,18.542-2.888v-25.86h-20.708V263.289z M283.149,52.723L232.625,2.197C231.218,0.79,229.311,0,227.321,0
		H40.342c-4.142,0-7.5,3.358-7.5,7.5v303.188c0,4.143,3.358,7.5,7.5,7.5h237.504c4.142,0,7.5-3.357,7.5-7.5V58.025
		C285.346,56.036,284.556,54.129,283.149,52.723z M234.821,25.606l24.918,24.919h-24.918L234.821,25.606L234.821,25.606z M47.842,15
		h171.979v10.263H47.842V15z M270.346,303.188H47.842V40.263h171.979v17.763c0,4.143,3.358,7.5,7.5,7.5h43.024v237.662H270.346z"/>
</g>
<g>
</g>
<g>
</g>
<g>
</g>
<g>
</g>
<g>
</g>
<g>
</g>
<g>
</g>
<g>
</g>
<g>
</g>
<g>
</g>
<g>
</g>
<g>
</g>
<g>
</g>
<g>
</g>
<g>
</g>
</svg>
