<?xml version="1.0" encoding="iso-8859-1"?>
<!-- Generator: Adobe Illustrator 19.0.0, SVG Export Plug-In . SVG Version: 6.00 Build 0)  -->
<svg version="1.1" id="Layer_1" xmlns="http://www.w3.org/2000/svg" xmlns:xlink="http://www.w3.org/1999/xlink" x="0px" y="0px"
	 viewBox="0 0 318.188 318.188" style="enable-background:new 0 0 318.188 318.188;" xml:space="preserve">
<g>
	<polygon style="fill:#E8E8E8;" points="227.321,7.5 40.342,7.5 40.342,310.688 277.846,310.688 277.846,58.025 	"/>
	<polygon style="fill:#FB3449;" points="235.14,32.763 40.342,32.763 40.342,7.5 227.321,7.5 	"/>
	<polygon style="fill:#D1D3D3;" points="227.321,58.025 277.846,58.025 227.321,7.5 	"/>
	<path style="fill:#FB3449;" d="M205.786,96.918V71.78c-33.604,0-50.088,30.013-63.333,54.129
		c-12.618,22.976-21.247,36.925-34.631,36.925v25.139c28.427,0,42.997-25.117,55.609-48.042h33.747v-25.138h-18.784
		C186.464,103.371,194.53,96.918,205.786,96.918z"/>
	<path style="fill:#333E48;" d="M283.149,52.722L232.625,2.197C231.218,0.79,229.311,0,227.321,0H40.342c-4.142,0-7.5,3.358-7.5,7.5
		v303.188c0,4.142,3.358,7.5,7.5,7.5h237.504c4.142,0,7.5-3.358,7.5-7.5V58.025C285.346,56.036,284.556,54.129,283.149,52.722z
		 M234.821,25.606l24.918,24.919h-24.918L234.821,25.606L234.821,25.606z M47.842,15h171.979v10.263H47.842V15z M270.346,303.188
		H47.842V40.263h171.979v17.763c0,4.142,3.358,7.5,7.5,7.5h43.024v237.662H270.346z M199.731,281.371h12.766v-18.017h14.374v-10.403
		h-14.374v-9.156h15.589v-10.403h-28.354v47.979H199.731z M103.214,243.959c0.766-0.591,1.991-0.886,3.675-0.886
		c3.26,0,7.132,1.029,11.618,3.085l3.971-10.009c-5.164-2.297-10.228-3.446-15.194-3.446c-5.623,0-10.042,1.236-13.258,3.708
		c-3.216,2.473-4.824,5.918-4.824,10.337c0,2.363,0.377,4.409,1.132,6.137c0.755,1.729,1.914,3.26,3.479,4.595
		c1.564,1.334,3.911,2.713,7.04,4.135c3.457,1.554,5.584,2.582,6.383,3.085c0.798,0.503,1.378,1.001,1.739,1.493
		s0.542,1.067,0.542,1.723c0,1.05-0.449,1.909-1.345,2.576c-0.897,0.667-2.309,1.001-4.234,1.001c-2.231,0-4.682-0.355-7.351-1.067
		c-2.669-0.71-5.24-1.701-7.712-2.97v11.552c2.341,1.116,4.594,1.898,6.76,2.346s4.846,0.673,8.041,0.673
		c3.828,0,7.165-0.64,10.009-1.92s5.021-3.073,6.531-5.382c1.51-2.308,2.264-4.95,2.264-7.925c0-3.238-0.804-5.924-2.412-8.057
		s-4.479-4.129-8.614-5.989c-4.311-1.969-6.952-3.326-7.926-4.07c-0.974-0.743-1.46-1.586-1.46-2.527
		C102.066,245.283,102.448,244.55,103.214,243.959z M175.708,257.513c-1.269,5.995-2.046,10.206-2.33,12.635
		c-0.24-1.881-0.722-4.726-1.443-8.533c-0.722-3.807-1.434-7.165-2.133-10.075l-4.103-18.148h-12.012l-4.233,18.148
		c-0.635,2.516-1.318,5.688-2.051,9.517s-1.242,6.859-1.526,9.09c-0.438-3.15-1.247-7.384-2.429-12.7l-5.218-24.056h-12.503
		l11.88,47.979h15.325c2.801-12.58,4.393-19.756,4.775-21.528s0.771-3.713,1.165-5.825c0.394-2.111,0.678-3.877,0.854-5.3
		c0.218,1.75,0.563,3.927,1.033,6.531s0.815,4.343,1.034,5.218l4.595,20.905h15.325l11.814-47.979h-12.503L175.708,257.513z"/>
</g>
<g>
</g>
<g>
</g>
<g>
</g>
<g>
</g>
<g>
</g>
<g>
</g>
<g>
</g>
<g>
</g>
<g>
</g>
<g>
</g>
<g>
</g>
<g>
</g>
<g>
</g>
<g>
</g>
<g>
</g>
</svg>
