<?xml version="1.0" encoding="iso-8859-1"?>
<!-- Generator: Adobe Illustrator 19.0.0, SVG Export Plug-In . SVG Version: 6.00 Build 0)  -->
<svg version="1.1" id="Layer_1" xmlns="http://www.w3.org/2000/svg" xmlns:xlink="http://www.w3.org/1999/xlink" x="0px" y="0px"
	 viewBox="0 0 318.188 318.188" style="enable-background:new 0 0 318.188 318.188;" xml:space="preserve">
<g>
	<polygon style="fill:#E8E8E8;" points="227.321,7.5 40.342,7.5 40.342,310.688 277.846,310.688 277.846,58.025 	"/>
	<g>
		<circle style="fill:#A4A9AD;" cx="191.186" cy="153.154" r="26.521"/>
		<rect x="100.588" y="98.979" style="fill:#A4A9AD;" width="43.947" height="43.947"/>
		<polygon style="fill:#D1D3D3;" points="132.976,107.552 196.358,90.567 179.374,153.952 		"/>
	</g>
	<polygon style="fill:#38A3FF;" points="235.14,32.763 40.342,32.763 40.342,7.5 227.321,7.5 	"/>
	<polygon style="fill:#D1D3D3;" points="227.321,58.025 277.846,58.025 227.321,7.5 	"/>
	<path style="fill:#333E48;" d="M92.237,243.992h11.715v37.379h12.963v-37.379h11.684v-10.601H92.237V243.992z M158.856,281.371
		h12.766v-18.017h14.374v-10.403h-14.374v-9.156h15.589v-10.403h-28.354v47.979H158.856z M283.149,52.723L232.625,2.197
		C231.218,0.79,229.311,0,227.321,0H40.342c-4.143,0-7.5,3.358-7.5,7.5v303.188c0,4.143,3.357,7.5,7.5,7.5h237.504
		c4.143,0,7.5-3.357,7.5-7.5V58.025C285.346,56.036,284.556,54.129,283.149,52.723z M234.821,25.606l24.918,24.919h-24.918
		L234.821,25.606L234.821,25.606z M47.842,15h171.979v10.263H47.842V15z M270.346,303.188H47.842V40.263h171.979v17.763
		c0,4.143,3.357,7.5,7.5,7.5h43.024v237.662H270.346z M195.087,281.371h12.766v-18.017h14.374v-10.403h-14.374v-9.156h15.589
		v-10.403h-28.354v47.979H195.087z M135.458,281.371h13.028v-47.979h-13.028V281.371z"/>
</g>
<g>
</g>
<g>
</g>
<g>
</g>
<g>
</g>
<g>
</g>
<g>
</g>
<g>
</g>
<g>
</g>
<g>
</g>
<g>
</g>
<g>
</g>
<g>
</g>
<g>
</g>
<g>
</g>
<g>
</g>
</svg>
