<?xml version="1.0" encoding="iso-8859-1"?>
<!-- Generator: Adobe Illustrator 19.0.0, SVG Export Plug-In . SVG Version: 6.00 Build 0)  -->
<svg version="1.1" id="Layer_1" xmlns="http://www.w3.org/2000/svg" xmlns:xlink="http://www.w3.org/1999/xlink" x="0px" y="0px"
	 viewBox="0 0 318.188 318.188" style="enable-background:new 0 0 318.188 318.188;" xml:space="preserve">
<g>
	<polygon style="fill:#E8E8E8;" points="227.321,7.5 40.342,7.5 40.342,310.688 277.846,310.688 277.846,58.025 	"/>
	<g>
		<rect x="100.317" y="173.87" style="fill:#D1D3D3;" width="49.543" height="12.865"/>
		<rect x="100.317" y="149.229" style="fill:#D1D3D3;" width="107.543" height="12.865"/>
		<rect x="100.317" y="124.587" style="fill:#D1D3D3;" width="117.551" height="12.865"/>
		<rect x="100.317" y="99.945" style="fill:#D1D3D3;" width="82.209" height="12.865"/>
		<rect x="100.317" y="75.304" style="fill:#D1D3D3;" width="117.551" height="12.865"/>
	</g>
	<polygon style="fill:#A4A9AD;" points="235.14,32.763 40.342,32.763 40.342,7.5 227.321,7.5 	"/>
	<polygon style="fill:#D1D3D3;" points="227.321,58.025 277.846,58.025 227.321,7.5 	"/>
	<path style="fill:#333E48;" d="M96.011,243.992h11.716v37.379h12.963v-37.379h11.683v-10.601H96.011V243.992z M283.149,52.723
		L232.625,2.197C231.218,0.79,229.311,0,227.321,0H40.342c-4.143,0-7.5,3.358-7.5,7.5v303.188c0,4.143,3.357,7.5,7.5,7.5h237.504
		c4.143,0,7.5-3.357,7.5-7.5V58.025C285.346,56.036,284.556,54.129,283.149,52.723z M234.821,25.606l24.918,24.919h-24.918
		L234.821,25.606L234.821,25.606z M47.842,15h171.979v10.263H47.842V15z M270.346,303.188H47.842V40.263h171.979v17.763
		c0,4.143,3.357,7.5,7.5,7.5h43.024v237.662H270.346z M184.323,243.992h11.716v37.379h12.963v-37.379h11.683v-10.601h-36.361v10.601
		H184.323z M181.304,233.392h-14.801l-8.336,14.834l-8.664-14.834H135.13l14.965,23.433l-15.917,24.547h14.669l9.256-14.998
		l9.352,14.998h14.998l-16.344-23.53L181.304,233.392z"/>
</g>
<g>
</g>
<g>
</g>
<g>
</g>
<g>
</g>
<g>
</g>
<g>
</g>
<g>
</g>
<g>
</g>
<g>
</g>
<g>
</g>
<g>
</g>
<g>
</g>
<g>
</g>
<g>
</g>
<g>
</g>
</svg>
