<?xml version="1.0" encoding="iso-8859-1"?>
<!-- Generator: Adobe Illustrator 19.0.0, SVG Export Plug-In . SVG Version: 6.00 Build 0)  -->
<svg version="1.1" id="Layer_1" xmlns="http://www.w3.org/2000/svg" xmlns:xlink="http://www.w3.org/1999/xlink" x="0px" y="0px"
	 viewBox="0 0 318.188 318.188" style="enable-background:new 0 0 318.188 318.188;" xml:space="preserve">
<g>
	<polygon style="fill:#E8E8E8;" points="227.321,7.5 40.342,7.5 40.342,310.688 277.846,310.688 277.846,58.025 	"/>
	<g>
		<circle style="fill:#38A3FF;" cx="157.627" cy="129.643" r="59.225"/>
	</g>
	<path style="fill:#333E48;" d="M175.122,97.113c-8.07-4.134-11.744-6.569-11.744-11.455l-4.974,0.876v54.963
		c-2.645-0.313-5.585-0.241-8.699,0.308c-11.341,2.001-20.533,9.387-20.533,16.499c0,7.11,9.192,11.256,20.533,9.257
		c11.341-2.001,20.533-9.388,20.533-16.497V113.82c0-9.05,9.061-8.18,9.409,3.479c0.349,11.66-4.698,14.791-4.698,14.791l5.22,2.262
		C191.481,123.042,188.065,103.743,175.122,97.113z"/>
	<polygon style="fill:#38A3FF;" points="235.14,32.763 40.342,32.763 40.342,7.5 227.321,7.5 	"/>
	<polygon style="fill:#D1D3D3;" points="227.321,58.025 277.846,58.025 227.321,7.5 	"/>
	<path style="fill:#333E48;" d="M283.149,52.723L232.625,2.197C231.218,0.79,229.311,0,227.321,0H40.342c-4.143,0-7.5,3.358-7.5,7.5
		v303.188c0,4.143,3.357,7.5,7.5,7.5h237.504c4.143,0,7.5-3.357,7.5-7.5V58.025C285.346,56.036,284.556,54.129,283.149,52.723z
		 M234.821,25.606l24.918,24.919h-24.918L234.821,25.606L234.821,25.606z M47.842,15h171.979v10.263H47.842V15z M270.346,303.188
		H47.842V40.263h171.979v17.763c0,4.143,3.357,7.5,7.5,7.5h43.024v237.662H270.346z M219.815,257.841
		c-0.351,1.313-0.755,3.118-1.215,5.415c-0.459,2.297-0.766,4.212-0.919,5.743c-0.131-2.122-0.875-5.886-2.231-11.29l-6.53-24.317
		h-14.571l15.654,47.979h15.26l15.72-47.979h-14.506L219.815,257.841z M126.712,257.513c-1.27,5.995-2.047,10.206-2.33,12.635
		c-0.242-1.882-0.723-4.726-1.444-8.532s-1.433-7.166-2.134-10.075l-4.102-18.148H104.69l-4.232,18.148
		c-0.635,2.517-1.318,5.688-2.052,9.517c-0.733,3.829-1.242,6.859-1.526,9.091c-0.438-3.15-1.246-7.384-2.428-12.7l-5.219-24.056
		H76.73l11.88,47.979h15.326c2.8-12.58,4.392-19.756,4.774-21.528s0.771-3.714,1.165-5.825s0.678-3.877,0.854-5.3
		c0.219,1.751,0.563,3.927,1.033,6.53s0.814,4.344,1.034,5.219l4.595,20.904h15.325l11.814-47.979h-12.503L126.712,257.513z
		 M161.203,233.195l-15.654,48.176h14.243l2.428-8.992h15.589l2.362,8.992h14.178l-15.851-48.176H161.203z M164.911,261.746
		c1.99-7.525,3.276-12.568,3.856-15.129c0.579-2.56,0.968-4.397,1.165-5.514c0.218,1.204,0.673,3.195,1.361,5.973
		c0.689,2.779,1.274,5.043,1.756,6.794l2.067,7.876H164.911z"/>
</g>
<g>
</g>
<g>
</g>
<g>
</g>
<g>
</g>
<g>
</g>
<g>
</g>
<g>
</g>
<g>
</g>
<g>
</g>
<g>
</g>
<g>
</g>
<g>
</g>
<g>
</g>
<g>
</g>
<g>
</g>
</svg>
