<?xml version="1.0" encoding="iso-8859-1"?>
<!-- Generator: Adobe Illustrator 19.0.0, SVG Export Plug-In . SVG Version: 6.00 Build 0)  -->
<svg version="1.1" id="Layer_1" xmlns="http://www.w3.org/2000/svg" xmlns:xlink="http://www.w3.org/1999/xlink" x="0px" y="0px"
	 viewBox="0 0 318.188 318.188" style="enable-background:new 0 0 318.188 318.188;" xml:space="preserve">
<g>
	<polygon style="fill:#E8E8E8;" points="227.321,7.5 40.342,7.5 40.342,310.688 277.846,310.688 277.846,58.025 	"/>
	<g>
		<rect x="113.593" y="77.053" style="fill:#333E48;" width="89.51" height="108.707"/>
		<rect x="118.954" y="134.087" style="fill:#38A3FF;" width="78.787" height="46.313"/>
		<rect x="118.954" y="82.414" style="fill:#38A3FF;" width="78.787" height="46.312"/>
		<g>
			<rect x="99.702" y="77.053" style="fill:#A4A9AD;" width="13.891" height="108.707"/>
			<rect x="102.937" y="175.372" style="fill:#FFFFFF;" width="7.872" height="5.778"/>
			<rect x="102.937" y="161.985" style="fill:#FFFFFF;" width="7.872" height="5.777"/>
			<rect x="102.937" y="148.598" style="fill:#FFFFFF;" width="7.872" height="5.778"/>
			<rect x="102.937" y="135.211" style="fill:#FFFFFF;" width="7.872" height="5.778"/>
			<rect x="102.937" y="121.823" style="fill:#FFFFFF;" width="7.872" height="5.778"/>
			<rect x="102.937" y="108.436" style="fill:#FFFFFF;" width="7.872" height="5.778"/>
			<rect x="102.937" y="95.049" style="fill:#FFFFFF;" width="7.872" height="5.777"/>
			<rect x="102.937" y="81.661" style="fill:#FFFFFF;" width="7.872" height="5.778"/>
		</g>
		<g>
			<rect x="203.104" y="77.053" style="fill:#A4A9AD;" width="13.89" height="108.707"/>
			<rect x="205.887" y="175.372" style="fill:#FFFFFF;" width="7.872" height="5.778"/>
			<rect x="205.887" y="161.985" style="fill:#FFFFFF;" width="7.872" height="5.777"/>
			<rect x="205.887" y="148.598" style="fill:#FFFFFF;" width="7.872" height="5.778"/>
			<rect x="205.887" y="135.211" style="fill:#FFFFFF;" width="7.872" height="5.778"/>
			<rect x="205.887" y="121.823" style="fill:#FFFFFF;" width="7.872" height="5.778"/>
			<rect x="205.887" y="108.436" style="fill:#FFFFFF;" width="7.872" height="5.778"/>
			<rect x="205.887" y="95.049" style="fill:#FFFFFF;" width="7.872" height="5.777"/>
			<rect x="205.887" y="81.661" style="fill:#FFFFFF;" width="7.872" height="5.778"/>
		</g>
	</g>
	<polygon style="fill:#38A3FF;" points="235.14,32.763 40.342,32.763 40.342,7.5 227.321,7.5 	"/>
	<polygon style="fill:#D1D3D3;" points="227.321,58.025 277.846,58.025 227.321,7.5 	"/>
	<path style="fill:#333E48;" d="M283.149,52.723L232.625,2.197C231.218,0.79,229.311,0,227.321,0H40.342c-4.143,0-7.5,3.358-7.5,7.5
		v303.188c0,4.143,3.357,7.5,7.5,7.5h237.504c4.143,0,7.5-3.357,7.5-7.5V58.025C285.346,56.036,284.556,54.129,283.149,52.723z
		 M234.821,25.606l24.918,24.919h-24.918L234.821,25.606L234.821,25.606z M47.842,15h171.979v10.263H47.842V15z M270.346,303.188
		H47.842V40.263h171.979v17.763c0,4.143,3.357,7.5,7.5,7.5h43.024v237.662H270.346z M122.884,260.072
		c-1.133,5.352-1.826,9.111-2.08,11.279c-0.215-1.68-0.645-4.219-1.289-7.617s-1.279-6.396-1.904-8.994l-3.662-16.201h-10.723
		l-3.779,16.201c-0.566,2.246-1.177,5.078-1.831,8.496c-0.655,3.418-1.108,6.123-1.362,8.115c-0.391-2.813-1.113-6.592-2.168-11.338
		l-4.658-21.475H78.265L88.87,281.37h13.682c2.5-11.23,3.921-17.637,4.263-19.219c0.341-1.582,0.688-3.314,1.04-5.2
		c0.352-1.885,0.605-3.462,0.762-4.731c0.195,1.563,0.502,3.506,0.923,5.83c0.42,2.324,0.728,3.877,0.923,4.658l4.102,18.662h13.682
		l10.547-42.832H127.63L122.884,260.072z M168.909,268.949h-0.234l-8.936-30.41h-15.41v42.832h10.254v-18.604
		c0-2.91-0.205-6.992-0.615-12.246h0.264l8.76,30.85h11.016l8.643-30.791h0.264c-0.234,4.648-0.366,7.568-0.396,8.76
		s-0.044,2.275-0.044,3.252v18.779h10.635v-42.832h-15.439L168.909,268.949z M220.442,260.365c-0.313,1.172-0.674,2.783-1.084,4.834
		s-0.684,3.76-0.82,5.127c-0.117-1.895-0.781-5.254-1.992-10.078l-5.83-21.709h-13.008l13.975,42.832h13.623l14.033-42.832H226.39
		L220.442,260.365z"/>
</g>
<g>
</g>
<g>
</g>
<g>
</g>
<g>
</g>
<g>
</g>
<g>
</g>
<g>
</g>
<g>
</g>
<g>
</g>
<g>
</g>
<g>
</g>
<g>
</g>
<g>
</g>
<g>
</g>
<g>
</g>
</svg>
