<?xml version="1.0" encoding="iso-8859-1"?>
<!-- Generator: Adobe Illustrator 19.0.0, SVG Export Plug-In . SVG Version: 6.00 Build 0)  -->
<svg version="1.1" id="Layer_1" xmlns="http://www.w3.org/2000/svg" xmlns:xlink="http://www.w3.org/1999/xlink" x="0px" y="0px"
	 viewBox="0 0 318.188 318.188" style="enable-background:new 0 0 318.188 318.188;" xml:space="preserve">
<g>
	<polygon style="fill:#E8E8E8;" points="227.321,7.5 40.342,7.5 40.342,310.688 277.846,310.688 277.846,58.025 	"/>
	<g>
		<rect x="98.402" y="69.204" style="fill:#007934;" width="119.89" height="119.89"/>
		<rect x="108.803" y="79.604" style="fill:#FFFFFF;" width="99.088" height="99.088"/>
		<polygon style="fill:#007934;" points="200.12,144.923 169.541,144.923 178.573,156.203 169.541,167.482 200.12,167.482 
			191.088,156.203 		"/>
		<polygon style="fill:#007934;" points="191.375,105.386 162.109,105.386 155.622,113.487 149.135,105.386 119.869,105.386 
			140.989,131.762 119.869,158.138 191.375,158.138 170.255,131.762 		"/>
		<polygon style="fill:#FFFFFF;" points="132.411,109.116 128.176,109.116 164.444,154.408 168.678,154.408 		"/>
	</g>
	<polygon style="fill:#007934;" points="235.14,32.763 40.342,32.763 40.342,7.5 227.321,7.5 	"/>
	<polygon style="fill:#D1D3D3;" points="227.321,58.025 277.846,58.025 227.321,7.5 	"/>
	<path style="fill:#333E48;" d="M200.108,243.959c0.766-0.591,1.99-0.886,3.676-0.886c3.26,0,7.132,1.029,11.617,3.085l3.971-10.009
		c-5.163-2.297-10.229-3.446-15.194-3.446c-5.623,0-10.042,1.236-13.259,3.708c-3.216,2.473-4.823,5.918-4.823,10.337
		c0,2.363,0.377,4.409,1.132,6.137c0.755,1.729,1.914,3.26,3.479,4.595s3.91,2.713,7.039,4.135c3.457,1.554,5.584,2.582,6.384,3.085
		c0.798,0.503,1.378,1.001,1.739,1.493c0.36,0.492,0.541,1.067,0.541,1.723c0,1.05-0.448,1.909-1.346,2.576
		s-2.309,1.001-4.233,1.001c-2.231,0-4.682-0.355-7.351-1.067c-2.67-0.71-5.24-1.701-7.713-2.97v11.552
		c2.341,1.116,4.595,1.898,6.761,2.346s4.846,0.673,8.04,0.673c3.829,0,7.165-0.64,10.01-1.92c2.844-1.28,5.021-3.073,6.53-5.382
		c1.51-2.308,2.265-4.95,2.265-7.925c0-3.238-0.804-5.924-2.412-8.057c-1.607-2.133-4.479-4.129-8.614-5.989
		c-4.311-1.969-6.952-3.326-7.926-4.07c-0.974-0.743-1.46-1.586-1.46-2.527C198.96,245.283,199.342,244.55,200.108,243.959z
		 M283.149,52.722L232.625,2.197C231.218,0.79,229.311,0,227.321,0H40.342c-4.142,0-7.5,3.358-7.5,7.5v303.188
		c0,4.142,3.358,7.5,7.5,7.5h237.504c4.142,0,7.5-3.358,7.5-7.5V58.025C285.346,56.036,284.556,54.129,283.149,52.722z
		 M234.821,25.606l24.918,24.919h-24.918L234.821,25.606L234.821,25.606z M47.842,15h171.979v10.263H47.842V15z M270.346,303.188
		H47.842V40.263h171.979v17.763c0,4.142,3.358,7.5,7.5,7.5h43.024v237.662H270.346z M142.349,233.392h-14.801l-8.335,14.834
		l-8.664-14.834H96.175l14.965,23.432l-15.917,24.547h14.669l9.254-14.998l9.353,14.998h14.998l-16.343-23.53L142.349,233.392z
		 M161.843,233.392H148.88v47.979h31.439v-10.469h-18.477v-37.51H161.843z"/>
</g>
<g>
</g>
<g>
</g>
<g>
</g>
<g>
</g>
<g>
</g>
<g>
</g>
<g>
</g>
<g>
</g>
<g>
</g>
<g>
</g>
<g>
</g>
<g>
</g>
<g>
</g>
<g>
</g>
<g>
</g>
</svg>
