<?xml version="1.0" encoding="iso-8859-1"?>
<!-- Generator: Adobe Illustrator 19.0.0, SVG Export Plug-In . SVG Version: 6.00 Build 0)  -->
<svg version="1.1" id="Layer_1" xmlns="http://www.w3.org/2000/svg" xmlns:xlink="http://www.w3.org/1999/xlink" x="0px" y="0px"
	 viewBox="0 0 318.188 318.188" style="enable-background:new 0 0 318.188 318.188;" xml:space="preserve">
<g>
	<polygon style="fill:#E4E4E4;" points="227.321,7.5 40.342,7.5 40.342,310.688 277.846,310.688 277.846,58.025 	"/>
	<g>
		<rect x="151.682" y="20.131" style="fill:#333E48;" width="14.824" height="132.962"/>
		<path style="fill:#A4A9AD;" d="M159.094,142.094c-8.247,0-14.933,20.253-14.933,28.5s6.686,14.933,14.933,14.933
			s14.933-6.686,14.933-14.933S167.341,142.094,159.094,142.094z M159.094,177.505c-3.817,0-6.912-3.094-6.912-6.912
			s3.094-6.912,6.912-6.912s6.912,3.094,6.912,6.912S162.911,177.505,159.094,177.505z"/>
	</g>
	<polygon style="fill:#A4A9AD;" points="235.14,32.763 40.342,32.763 40.342,7.5 227.321,7.5 	"/>
	<polygon style="fill:#D1D3D3;" points="227.321,58.025 277.846,58.025 227.321,7.5 	"/>
	<path style="fill:#333E48;" d="M143.744,241.367v-7.975h-36.362v10.469h20.281l-20.773,29.503v8.007h37.379v-10.469H122.97
		L143.744,241.367z M204.785,237.363c-3.042-2.647-7.593-3.971-13.652-3.971h-16.605v47.979h12.963v-15.917h3.643
		c5.819,0,10.31-1.46,13.472-4.381c3.161-2.92,4.742-7.061,4.742-12.421C209.347,243.773,207.825,240.01,204.785,237.363z
		 M194.496,253.247c-1.148,1.094-2.696,1.641-4.644,1.641h-2.362v-11.026h3.347c3.588,0,5.383,1.619,5.383,4.857
		C196.22,250.643,195.646,252.153,194.496,253.247z M283.149,52.722L232.625,2.197C231.218,0.79,229.311,0,227.321,0H40.342
		c-4.142,0-7.5,3.358-7.5,7.5v303.188c0,4.142,3.358,7.5,7.5,7.5h237.504c4.142,0,7.5-3.358,7.5-7.5V58.025
		C285.346,56.036,284.556,54.129,283.149,52.722z M234.821,25.606l24.918,24.919h-24.918L234.821,25.606L234.821,25.606z M47.842,15
		h171.979v10.263H47.842V15z M270.346,303.188H47.842V40.263h171.979v17.763c0,4.142,3.358,7.5,7.5,7.5h43.024v237.662H270.346z
		 M151.128,281.371h13.028v-47.979h-13.028V281.371z"/>
</g>
<g>
</g>
<g>
</g>
<g>
</g>
<g>
</g>
<g>
</g>
<g>
</g>
<g>
</g>
<g>
</g>
<g>
</g>
<g>
</g>
<g>
</g>
<g>
</g>
<g>
</g>
<g>
</g>
<g>
</g>
</svg>
